<mxfile host="app.diagrams.net" modified="2020-08-19T14:14:05.936Z" agent="5.0 (Macintosh; Intel Mac OS X 10_15_5) AppleWebKit/537.36 (KHTML, like Gecko) Chrome/84.0.4147.125 Safari/537.36" etag="rVXGpkguYVGAtmdb-YOm" version="13.4.5" type="github">
  <diagram id="VWrVn7Ejfe0De7bRPAJs" name="Page-1">
    <mxGraphModel dx="2845" dy="1860" grid="1" gridSize="10" guides="1" tooltips="1" connect="1" arrows="1" fold="1" page="1" pageScale="1" pageWidth="850" pageHeight="1100" math="0" shadow="0">
      <root>
        <mxCell id="0" />
        <mxCell id="1" parent="0" />
        <mxCell id="c0XTT7H6YwgaKxXrYVT6-42" style="edgeStyle=orthogonalEdgeStyle;rounded=0;orthogonalLoop=1;jettySize=auto;html=1;exitX=0.5;exitY=0;exitDx=0;exitDy=0;" parent="1" source="c0XTT7H6YwgaKxXrYVT6-25" edge="1">
          <mxGeometry relative="1" as="geometry">
            <mxPoint x="30" as="targetPoint" />
            <Array as="points">
              <mxPoint x="-60" y="20" />
              <mxPoint x="30" y="20" />
            </Array>
          </mxGeometry>
        </mxCell>
        <mxCell id="c0XTT7H6YwgaKxXrYVT6-25" value="contact 1" style="swimlane;fontStyle=0;childLayout=stackLayout;horizontal=1;startSize=26;horizontalStack=0;resizeParent=1;resizeParentMax=0;resizeLast=0;collapsible=1;marginBottom=0;align=center;fontSize=14;fillColor=#f8cecc;strokeColor=#b85450;" parent="1" vertex="1">
          <mxGeometry x="-140" y="50" width="160" height="228" as="geometry" />
        </mxCell>
        <mxCell id="c0XTT7H6YwgaKxXrYVT6-26" value="belongsTo: [account a,&#xa;                   lead x,&#xa;                   company b]&#xa;" style="text;strokeColor=none;fillColor=none;spacingLeft=4;spacingRight=4;overflow=hidden;rotatable=0;points=[[0,0.5],[1,0.5]];portConstraint=eastwest;fontSize=12;" parent="c0XTT7H6YwgaKxXrYVT6-25" vertex="1">
          <mxGeometry y="26" width="160" height="124" as="geometry" />
        </mxCell>
        <mxCell id="D0VUoQXIqZahB_qH9DUe-5" value="ssn: encrypted" style="text;strokeColor=none;fillColor=none;spacingLeft=4;spacingRight=4;overflow=hidden;rotatable=0;points=[[0,0.5],[1,0.5]];portConstraint=eastwest;fontSize=12;" parent="c0XTT7H6YwgaKxXrYVT6-25" vertex="1">
          <mxGeometry y="150" width="160" height="26" as="geometry" />
        </mxCell>
        <mxCell id="D0VUoQXIqZahB_qH9DUe-3" value="lastName: string" style="text;strokeColor=none;fillColor=none;spacingLeft=4;spacingRight=4;overflow=hidden;rotatable=0;points=[[0,0.5],[1,0.5]];portConstraint=eastwest;fontSize=12;" parent="c0XTT7H6YwgaKxXrYVT6-25" vertex="1">
          <mxGeometry y="176" width="160" height="26" as="geometry" />
        </mxCell>
        <mxCell id="D0VUoQXIqZahB_qH9DUe-1" value="firstName: string" style="text;strokeColor=none;fillColor=none;spacingLeft=4;spacingRight=4;overflow=hidden;rotatable=0;points=[[0,0.5],[1,0.5]];portConstraint=eastwest;fontSize=12;" parent="c0XTT7H6YwgaKxXrYVT6-25" vertex="1">
          <mxGeometry y="202" width="160" height="26" as="geometry" />
        </mxCell>
        <mxCell id="c0XTT7H6YwgaKxXrYVT6-43" style="edgeStyle=orthogonalEdgeStyle;rounded=0;orthogonalLoop=1;jettySize=auto;html=1;exitX=0.5;exitY=0;exitDx=0;exitDy=0;" parent="1" source="c0XTT7H6YwgaKxXrYVT6-2" edge="1">
          <mxGeometry relative="1" as="geometry">
            <mxPoint x="30" as="targetPoint" />
            <Array as="points">
              <mxPoint x="110" y="20" />
              <mxPoint x="30" y="20" />
            </Array>
          </mxGeometry>
        </mxCell>
        <mxCell id="c0XTT7H6YwgaKxXrYVT6-2" value="contact 2" style="swimlane;fontStyle=0;childLayout=stackLayout;horizontal=1;startSize=26;horizontalStack=0;resizeParent=1;resizeParentMax=0;resizeLast=0;collapsible=1;marginBottom=0;align=center;fontSize=14;fillColor=#f8cecc;strokeColor=#b85450;" parent="1" vertex="1">
          <mxGeometry x="30" y="50" width="160" height="180" as="geometry" />
        </mxCell>
        <mxCell id="c0XTT7H6YwgaKxXrYVT6-3" value="belongsTo:[]" style="text;strokeColor=none;fillColor=none;spacingLeft=4;spacingRight=4;overflow=hidden;rotatable=0;points=[[0,0.5],[1,0.5]];portConstraint=eastwest;fontSize=12;" parent="c0XTT7H6YwgaKxXrYVT6-2" vertex="1">
          <mxGeometry y="26" width="160" height="26" as="geometry" />
        </mxCell>
        <mxCell id="c0XTT7H6YwgaKxXrYVT6-4" value="createdAt: timestamp" style="text;strokeColor=none;fillColor=none;spacingLeft=4;spacingRight=4;overflow=hidden;rotatable=0;points=[[0,0.5],[1,0.5]];portConstraint=eastwest;fontSize=12;" parent="c0XTT7H6YwgaKxXrYVT6-2" vertex="1">
          <mxGeometry y="52" width="160" height="26" as="geometry" />
        </mxCell>
        <mxCell id="c0XTT7H6YwgaKxXrYVT6-5" value="updatedAt: timestamp" style="text;strokeColor=none;fillColor=none;spacingLeft=4;spacingRight=4;overflow=hidden;rotatable=0;points=[[0,0.5],[1,0.5]];portConstraint=eastwest;fontSize=12;" parent="c0XTT7H6YwgaKxXrYVT6-2" vertex="1">
          <mxGeometry y="78" width="160" height="26" as="geometry" />
        </mxCell>
        <mxCell id="crzcgryYDlIgTNpBML4_-10" value="id: string" style="text;strokeColor=none;fillColor=none;spacingLeft=4;spacingRight=4;overflow=hidden;rotatable=0;points=[[0,0.5],[1,0.5]];portConstraint=eastwest;fontSize=12;" parent="c0XTT7H6YwgaKxXrYVT6-2" vertex="1">
          <mxGeometry y="104" width="160" height="26" as="geometry" />
        </mxCell>
        <mxCell id="D0VUoQXIqZahB_qH9DUe-7" value="type:[ signer, emergencyContact,&#xa;other]" style="text;strokeColor=none;fillColor=none;spacingLeft=4;spacingRight=4;overflow=hidden;rotatable=0;points=[[0,0.5],[1,0.5]];portConstraint=eastwest;fontSize=12;" parent="c0XTT7H6YwgaKxXrYVT6-2" vertex="1">
          <mxGeometry y="130" width="160" height="50" as="geometry" />
        </mxCell>
        <mxCell id="c0XTT7H6YwgaKxXrYVT6-37" value="contacts" style="swimlane;fontStyle=0;childLayout=stackLayout;horizontal=1;startSize=26;horizontalStack=0;resizeParent=1;resizeParentMax=0;resizeLast=0;collapsible=1;marginBottom=0;align=center;fontSize=14;fillColor=#dae8fc;strokeColor=#6c8ebf;" parent="1" vertex="1">
          <mxGeometry x="-50" y="-52" width="160" height="52" as="geometry" />
        </mxCell>
        <mxCell id="c0XTT7H6YwgaKxXrYVT6-72" style="edgeStyle=orthogonalEdgeStyle;rounded=0;orthogonalLoop=1;jettySize=auto;html=1;exitX=0.5;exitY=0;exitDx=0;exitDy=0;entryX=0.5;entryY=1;entryDx=0;entryDy=0;" parent="1" source="c0XTT7H6YwgaKxXrYVT6-21" target="c0XTT7H6YwgaKxXrYVT6-45" edge="1">
          <mxGeometry relative="1" as="geometry" />
        </mxCell>
        <mxCell id="c0XTT7H6YwgaKxXrYVT6-71" style="edgeStyle=orthogonalEdgeStyle;rounded=0;orthogonalLoop=1;jettySize=auto;html=1;exitX=0.5;exitY=0;exitDx=0;exitDy=0;entryX=0.5;entryY=1;entryDx=0;entryDy=0;" parent="1" source="c0XTT7H6YwgaKxXrYVT6-29" target="c0XTT7H6YwgaKxXrYVT6-45" edge="1">
          <mxGeometry relative="1" as="geometry" />
        </mxCell>
        <mxCell id="c0XTT7H6YwgaKxXrYVT6-29" value="account 2" style="swimlane;fontStyle=0;childLayout=stackLayout;horizontal=1;startSize=26;horizontalStack=0;resizeParent=1;resizeParentMax=0;resizeLast=0;collapsible=1;marginBottom=0;align=center;fontSize=14;fillColor=#f8cecc;strokeColor=#b85450;" parent="1" vertex="1">
          <mxGeometry x="-360" y="50" width="170" height="152" as="geometry" />
        </mxCell>
        <mxCell id="c0XTT7H6YwgaKxXrYVT6-32" value="belongsTo: [company a, &#xa;                   user (salesperson),&#xa;                   lead]&#xa;]" style="text;strokeColor=none;fillColor=none;spacingLeft=4;spacingRight=4;overflow=hidden;rotatable=0;points=[[0,0.5],[1,0.5]];portConstraint=eastwest;fontSize=12;" parent="c0XTT7H6YwgaKxXrYVT6-29" vertex="1">
          <mxGeometry y="26" width="170" height="42" as="geometry" />
        </mxCell>
        <mxCell id="crzcgryYDlIgTNpBML4_-15" value="id:string" style="text;strokeColor=none;fillColor=none;spacingLeft=4;spacingRight=4;overflow=hidden;rotatable=0;points=[[0,0.5],[1,0.5]];portConstraint=eastwest;fontSize=12;" parent="c0XTT7H6YwgaKxXrYVT6-29" vertex="1">
          <mxGeometry y="68" width="170" height="42" as="geometry" />
        </mxCell>
        <mxCell id="D0VUoQXIqZahB_qH9DUe-8" value="industries:[landscaping, security]" style="text;strokeColor=none;fillColor=none;spacingLeft=4;spacingRight=4;overflow=hidden;rotatable=0;points=[[0,0.5],[1,0.5]];portConstraint=eastwest;fontSize=12;" parent="c0XTT7H6YwgaKxXrYVT6-29" vertex="1">
          <mxGeometry y="110" width="170" height="42" as="geometry" />
        </mxCell>
        <mxCell id="c0XTT7H6YwgaKxXrYVT6-21" value="account 1" style="swimlane;fontStyle=0;childLayout=stackLayout;horizontal=1;startSize=26;horizontalStack=0;resizeParent=1;resizeParentMax=0;resizeLast=0;collapsible=1;marginBottom=0;align=center;fontSize=14;fillColor=#f8cecc;strokeColor=#b85450;" parent="1" vertex="1">
          <mxGeometry x="-550" y="50" width="160" height="78" as="geometry" />
        </mxCell>
        <mxCell id="c0XTT7H6YwgaKxXrYVT6-24" value="belongsTo: [company a]" style="text;strokeColor=none;fillColor=none;spacingLeft=4;spacingRight=4;overflow=hidden;rotatable=0;points=[[0,0.5],[1,0.5]];portConstraint=eastwest;fontSize=12;" parent="c0XTT7H6YwgaKxXrYVT6-21" vertex="1">
          <mxGeometry y="26" width="160" height="26" as="geometry" />
        </mxCell>
        <mxCell id="crzcgryYDlIgTNpBML4_-14" value="id:string" style="text;strokeColor=none;fillColor=none;spacingLeft=4;spacingRight=4;overflow=hidden;rotatable=0;points=[[0,0.5],[1,0.5]];portConstraint=eastwest;fontSize=12;" parent="c0XTT7H6YwgaKxXrYVT6-21" vertex="1">
          <mxGeometry y="52" width="160" height="26" as="geometry" />
        </mxCell>
        <mxCell id="crzcgryYDlIgTNpBML4_-11" value="Subcollection" style="rounded=0;whiteSpace=wrap;html=1;fillColor=#d5e8d4;strokeColor=#82b366;" parent="1" vertex="1">
          <mxGeometry x="-810" y="-370" width="90" height="40" as="geometry" />
        </mxCell>
        <mxCell id="crzcgryYDlIgTNpBML4_-12" value="Collection" style="rounded=0;whiteSpace=wrap;html=1;fillColor=#dae8fc;strokeColor=#6c8ebf;" parent="1" vertex="1">
          <mxGeometry x="-810" y="-410" width="90" height="40" as="geometry" />
        </mxCell>
        <mxCell id="crzcgryYDlIgTNpBML4_-13" value="Document" style="rounded=0;whiteSpace=wrap;html=1;fillColor=#f8cecc;strokeColor=#b85450;" parent="1" vertex="1">
          <mxGeometry x="-810" y="-330" width="90" height="40" as="geometry" />
        </mxCell>
        <mxCell id="crzcgryYDlIgTNpBML4_-51" value="&lt;font&gt;&lt;font style=&quot;font-size: 25px&quot;&gt;Database Structure for Account Contact&lt;/font&gt;&lt;br&gt;&lt;ul style=&quot;font-size: 15px&quot;&gt;&lt;li style=&quot;text-align: left&quot;&gt;&lt;br&gt;&lt;/li&gt;&lt;li style=&quot;text-align: left&quot;&gt;&amp;nbsp;&lt;/li&gt;&lt;li style=&quot;text-align: left&quot;&gt;&amp;nbsp;&lt;/li&gt;&lt;li style=&quot;text-align: left&quot;&gt;&amp;nbsp;&lt;/li&gt;&lt;/ul&gt;&lt;/font&gt;" style="rounded=0;whiteSpace=wrap;html=1;fillColor=#fff2cc;strokeColor=#d6b656;" parent="1" vertex="1">
          <mxGeometry x="-480" y="-445" width="570" height="190" as="geometry" />
        </mxCell>
        <mxCell id="87K-iC8jjPHwz1hyrp69-1" value="&lt;h1&gt;Auth User Resources&lt;/h1&gt;&lt;p&gt;*This data is available once the user logs in and remains available during session until logout. No additional calls necessary as the data is being subscribed to via Firebase.&lt;/p&gt;&lt;pre&gt;Authenticated User - Document&lt;/pre&gt;&lt;pre&gt;&lt;br&gt;Authenticated Company(s) - Document(s) for companies the user belongs to&lt;/pre&gt;&lt;pre&gt;*Active company is always accessible to you EX: company.name&lt;/pre&gt;&lt;pre&gt;&lt;br&gt;&lt;/pre&gt;&lt;pre&gt;Authenticated Roles - This determines which roles the user has in the active company&lt;/pre&gt;&lt;pre&gt;&lt;br class=&quot;Apple-interchange-newline&quot;&gt;Authenticated Settings - This determines which settings the user has in the active company&lt;br&gt;&lt;/pre&gt;&lt;pre&gt;&lt;br&gt;&lt;/pre&gt;&lt;pre&gt;&lt;br&gt;&lt;/pre&gt;&lt;pre&gt;&lt;br&gt;&lt;/pre&gt;&lt;pre&gt;&lt;br&gt;&lt;/pre&gt;&lt;p&gt;&amp;nbsp;&amp;nbsp;&lt;/p&gt;" style="text;html=1;strokeColor=none;fillColor=#E0E0E0;spacing=5;spacingTop=-20;whiteSpace=wrap;overflow=hidden;rounded=0;shadow=1;" parent="1" vertex="1">
          <mxGeometry x="-1670" y="-600" width="660" height="290" as="geometry" />
        </mxCell>
        <mxCell id="c0XTT7H6YwgaKxXrYVT6-27" value="createdAt: timestamp" style="text;strokeColor=none;fillColor=none;spacingLeft=4;spacingRight=4;overflow=hidden;rotatable=0;points=[[0,0.5],[1,0.5]];portConstraint=eastwest;fontSize=12;" parent="1" vertex="1">
          <mxGeometry x="-140" y="143" width="160" height="26" as="geometry" />
        </mxCell>
        <mxCell id="c0XTT7H6YwgaKxXrYVT6-28" value="updatedAt: timestamp" style="text;strokeColor=none;fillColor=none;spacingLeft=4;spacingRight=4;overflow=hidden;rotatable=0;points=[[0,0.5],[1,0.5]];portConstraint=eastwest;fontSize=12;" parent="1" vertex="1">
          <mxGeometry x="-140" y="163" width="160" height="26" as="geometry" />
        </mxCell>
        <mxCell id="crzcgryYDlIgTNpBML4_-9" value="id: string" style="text;strokeColor=none;fillColor=none;spacingLeft=4;spacingRight=4;overflow=hidden;rotatable=0;points=[[0,0.5],[1,0.5]];portConstraint=eastwest;fontSize=12;" parent="1" vertex="1">
          <mxGeometry x="-140" y="123" width="160" height="26" as="geometry" />
        </mxCell>
        <mxCell id="D0VUoQXIqZahB_qH9DUe-4" value="" style="shape=image;verticalLabelPosition=bottom;labelBackgroundColor=#ffffff;verticalAlign=top;aspect=fixed;imageAspect=0;image=data:image/png,iVBORw0KGgoAAAANSUhEUgAAAWMAAAFWCAYAAAC8dfz/AAAAAXNSR0IArs4c6QAAAERlWElmTU0AKgAAAAgAAYdpAAQAAAABAAAAGgAAAAAAA6ABAAMAAAABAAEAAKACAAQAAAABAAABY6ADAAQAAAABAAABVgAAAADwxiyoAABAAElEQVR4Ae2dCbyW0/bHdyQ00TwP0jzP3QYNGiQNCsmcqUR1Rbhyjdec6YZLkgZDSTI3F5VERShKpVFUKiXuvVz/2/98F+u9z3nOO57z1jut9fm85xn2/Nv7+e2119618h3KEmdiCBgChoAhkFAEjkpo6Va4IWAIGAKGgCBgZGwDwRAwBAyBJEDAyDgJOsGqYAgYAoaAkbGNAUPAEDAEkgABI+Mk6ASrgiFgCBgCRsY2BgwBQ8AQSAIEjIyToBOsCoaAIWAIGBnbGDAEDAFDIAkQMDJOgk6wKhgChoAhYGRsY8AQMAQMgSRAIH8i6rBhwwZXuHBhV65cuZiLP3jwoPvyyy8D6Ro1auSOO+64wLPdGAKGgCGQiggkhIw///xzV758+VyR8f/93/+5n376SbBeunSpq1GjRsLJeMuWLW7KlClB+79Pnz6ubt26QcPspSFgCBgCikBCyFgLz831xBNPdJ07d5akH3zwQW6yiHuaKlWquJtuuknyXbx4sfvnP//punfvLs/58uWLe3mWoSFgCKQfAkHJGO1zwYIF7ueffw7Z4jp16rjatWuHDI8UQN6zZs1yP/zwg6tZs6Zr3rx5IAnlf/jhh27r1q0O8m3btq074YQTAuHhbv773/+6lStXuk2bNrmCBQu6li1burJly0oS3h04cMAdc8wx7osvvhCNukOHDlIGESgXgt++fbukoWzMKdQP+de//iXh3333nbxv1aqVaPcQrpKu3h91VHZz/L///W/3/vvvu127drnSpUtLm6ifiSFgCBgCIJCdMf7A5Oijj3YNGzZ0mBOWLVuW44fmh3kgL7JmzRp38sknC1lCgBCoyvTp092ePXtcp06dXLFixdyECRPcb7/9psFhr3PmzHHr16937dq1c2iskydPdt9//72k2bdvn5s3b57jCsFDmK+99logv/nz5zvs2W3atHGlSpVyc+fOlXpoBOL++uuvrmvXroG8sWFHEiaISZMmOf63UtoEvuPHjxfyj5TWwg0BQyAzEAhKxjQdbXLw4MGuUKFC2ZBgw2zAgAFCKNkCYnxAY0XjrF69ujv11FPdqlWrJIedO3e6b775xvXs2VO0ztatW4tWvHHjxogloLlC6thpK1as6Khr06ZN3UcffRRIW6FCBde+fXsJ50pZaMSqUffo0cNVrVrVNWjQIKARa+L9+/cLLmXKlHFNmjRx5w44NyocqDtldOnSRWzltPf44493a9eu1aztaggYAhmOQFAzhWKihDx27FgxWcSLiMlfl/XclyxZUswV3O/evVtsrg8//DCPImijEGEkweQByRUpUiQQlTasWLEi8IxWqoK5AhKGKH/55RfRvtGIVbx15F3fvn3d7Nmz3aJFi1y1atVcixYtxBSi8UNd9+7dKyTuzY+TJGj/JoaAIWAIgEBYMiaCEjLmit69e0elCZIuFkGjhUQRjqlhU0Urj1WwwWKbhVyVdDGpYPeNJJQPWVKXYPExMTBpXHrppTJZYArBBMIz9Q0nrC789neeI6ULl6eFGQKGQHohENJM4W0mhIxWqATnDcvtPZtpah5Yvny5mCvIq3Llyg477OrVqyVrNFcmgmhss2zyoXGSHwIxf/zxx1EdLcufP7876aSTZOOQtJAyG3UqaOcPPvig+/bbb0UbrlevnitQoEBU9UKLJt2OHTskOzbxaH9e7e5aN7saAoZA6iMQUTM+XE089thj3T/+8Q/RMrHB9urVS4pCMz7//PPdm2++6d59910hVE5tqOa8bds22QwjMkT95JNPSrr+/fu7WrVquX79+smmHKYJCJRTGtGe8z3jjDPctGnT3KeffiraMQStQn3PPvtsCeeeUxmYbSDwSIKmTVo2JpnQ/vOf/8jkxmkNE0PAEDAEQCBfIh2SsvTHVhvqX9Ch2UKIXlKMttvIF5uw/4hZuPSc2KAsyqVOnOLALly/fv1syTB9QMi5WSl4TTLZMrUHQ8AQyGgE/qf6JQAGbLShiJjqhAuLVF3IMlZZuHChEDHmA84ao/1y2sMveTkfrBq+P097NgQMgcxGIKGacbJBjw2bfwyCfbdo0aKucePGUZ2WSLZ2WH0MAUMg9RAwMk69PrMaGwKGQBoiENVpijRstzXJEDAEDIGkQsDIOKm6wypjCBgCmYqAkXGm9ry12xAwBJIKASPjpOoOq4whYAhkKgJGxpna89ZuQ8AQSCoEjIyTqjusMoaAIZCpCBgZZ2rPW7sNAUMgqRAwMk6q7rDKGAKGQKYiYGScqT1v7TYEDIGkQsDIOKm6wypjCBgCmYqAkXGm9ry12xAwBJIKgYT+r23xRIL/9pIf/y1nXkX/N7m8/K9xea2DpTcEDIHMQiBtNON4ETHdD6GTn4khYAgYAkcKgbQh43hoxF7Q452fN2+7NwQMAUPAj0DakLG/YUfi+euvv3ZfffWVW7BggbiPymuZ+Ppbs2ZNXrPJkR5ffu+8806O9/z/zcEE/3zPPvus27BhQ7DgbO/wXDJ37lxxzuoNCJW3N0687nFjZZKcCLz11lvu+++/D/ilTM5aJketMo6Mca0UL/n888/FX97UqVPFgSkENmDAAHG0qmW8+uqrDt96kNbLL7/smjRpIr+mTZu6QYMGOcIJQ2bOnBlwiKrp9epN27NnT3fvvfc6/AGGEuJfe+21Erxlyxb31FNPBaISdu6557pTTz3V3XTTTQFHqUSAiPEnqHZz3uFmavTo0eLHj7ReufXWW8XnIE5rkdmzZ0venTp1cjfffLPbuXOnvL/66qtdq1atsv3AAH+DSJs2bdyXX34p99H+4SMfOHCg5ElbmMxURo4c6V566SV9lCsTBPiDB0Ic7Q+90n+xir+sH374QXw64k8Rob9WrlyZLduHH37YPfTQQ9nepdIDjn6jMeU988wzMr7mz5+fSs1LSF0zhox/+uknIcMnnnjCPfbYY+6jjz6KC+DqVBTP1BdddJH78ccf3Ysvvih5QxaQ5o033igOVdHgWrduLR8mDlOHDx8uTkrxOh1JvGmff/558SwNmXs9WHvzID5+AP2ybt060XofffRRxwdSqFAh99xzzwWi4XoK8rj88stdpUqVJA/ImbZAOjhWVSF/tOLbb7/ddevWTSaVv/71r+6uu+5y5IOLKcUC57Ngrj8mMLBr0KCBZMeEhIPZWISJpGHDhkLC119/vRs1alQgOXULNvEyDtQERZw///nP0h+QJT8/gQcyDHPjLYuJ66qrrnKnnHKKTGok451/pUD/8EtVufjii93u3bsjVr9EiRKCd7FixSLGzfQIGUPGmBIYEGhol152qXx44TTLaAYGnqFr1qzpTj/9dHFkit+9v/3tbw6iw3XTAw884NAQO3ToEMgOjRNHpvxwdHrllVe6OXPmBMIhczQm6gnpeglK09KOc845R9I//fTTgbTR3GzevNkNHTrUlS9fXhy29ujRI6BRzpgxQ7RcSAlSRV5//XWJx4Txpz/9KeCEdf/+/UJ+kCj1Xbx4sbisgmDx0o1jV7TVRYsWBa3WxIkTRauNxqkr2jpl3HDDDWISgtjQyiB2PImDO6uPAgUKOExHsQgOa7U/uKoDW/pu6dKl7pZbbhHCpn2MF/qXSWDJkiU5ioH8r7vuOpnEmLhyK5iUyOeee+5xn3zySbZsPvjgA8dq5O6773afffZZIAx/jWihTC6vvPKKKAUaSB533nmnrJS85ioUgkmTJmk0MbmNGTNGnknD+HvttdfcsGHDxDkvZbDSYcVDW1ktaf24gs0dd9zhqKNK7969XalSpcSxr76za3AEMoKM0YSwf6JF8cGeUPQEV61atZg/XD+E+MiDkPv16xcIatasmTvzzDPdFVdc4d577z33l7/8JRAW7IYP3Ks1TJkyRUgWcuFDweYWSiB6//I3VFx9z8TRp08ffRRCQ4tDINu6deuKtgrJIWi4J598srSHJbyaKdComRAQ3tepU0fSQpTTp08XvPmYIXu/oGUzAfXt29cflOOZjx8sixQpIpomJP7mm2+KtkVZXo2T/li+fHkgD7RgytLfnj17AmGRbjC3jB8/XvqSPh0yZIhMBmDVrl07mSy9+TFpskJAS2Y1pKQeqRx/OBMi5q4LL7xQzC9M1kx8CJMDkyT1YYXFygqTCxhAwky0aKyYe6gDAkmOGDFCJsju3bu7xx9/XEiWsG+++Ub6n3sETffdd9+V+x07drj7779fyJcVH5MRqxlWgBdccIG0j3HEd0QfMcEz+fJjItL9Br6NihUruubNm0u+9ic0Amlzzjh0E50snxmwLJn4aNBq1q5dKyQTLl1uwy699FL3wgsviNZbsmTJbNnw8ag2wmYdWgQfscpll13m+GgQtD/q6iVPjce1Xr16buPGjfIxRqNhetNyj72Wjx+7NYK2jBZzzDHHCLHyDi/ZOGeFBCA1NEVID+0XAka4Qs4I5gI+fsgTvB955BF57/2D6eKss86SON73we4xg+Cte/DgwRIMVmjbmECYPCBMtMjVq1e7WbNmOezQKvTB22+/rY9Br6xivKsL8tN2oRFiS27RooWYLzDXdOzYUfJhxYCNulevXvLMJAE5t2/fXlYFQQuL4iW2c8ooXry4+/XXXwVrJnUmeEwokDT3CEoGK4Gff/7ZrVq1yo0bN076jnHBSoL0kydPFtOS2sJZsdCXEGwk0UmIeKzYMGfRD6zomGxYFbISgsDpf3Cj3hMmTJD+iZS/hWdHICM0Y13qY7tDs2MQo92o7TA7JHl/Gjt2rKtdu7ZoErt27cqWIWWyxGNyQGtgIGNvVYEIVRj0aEOhBE/WaK25IeItW7fIspWNJLV7BysH7ZJlOXVBE2fZGWozBns0S2vC0VCxL6MxeYX8IGO0q2iE0yperap69epizyYtpgS0u65du8qEAgmVKVMmkC22WzZF9RdslUH9MGHpj0lGBbOQChihFaoULlw42wkaJiy0abRTyCi3AqkxOUCeTOr0MaSKcM9EqNKlSxfXuXNn0ULBSMcO/1gJwmUVyCazFz8Idu/evQ6TQyTB/KNCvQ4ePKiP2a5MQIwLfmjyKAhowyaxIZARZKwfFUTMYETzyO0yMhK8aEtoaGgpkCy2Pa9g1mBzDA2YpSYfTCjBhAH5hJJ58+YFNEGW7hCsCh9OKJJFwx08aLDY97wft6b1Xpm0vHZY8mRSCybYcIlfpUoV0Q4hYzR/b3y0cGzoaOHRCOVt3bo1EJVJTJftEC92UjBn05ClNWaWWAQCQ8vWX27HBW2FgNgcZpPYaz7CDMWk4RXaBE5+wUyFcGXSQitXQev05sPKickNjJgEvMKJDrAiDbioEI+Jg5ULbSVOXoU8MOOwYmFcY3fG1mwSGwIZQcYFCxYU7RF7KUsrBO2AQRlPgXTQSNho4qgXpyjQECHNaAWtknzQXN544w2ZOPxpWZYy2Fmac6ICwfzxzNhnxGa5b98+WZ5zKsIvfLwsNdkgZFKKJGhemDJYgvNDyzzttNOCJsOeCjFCBKwA0DbRmsAf4fQAS13smtEK6Vmm0z7yxIzABpYKhEQ5mBRob+nSpTUoIVc069tuu01WHWpTZvJBEYAUaQNEzYqH8egXNiuZGBAmQWy+euoCTRjtnsmIdxxdxFzChMp4UXsvx87ImxUhNnsmQFZo9D31QEmAiElH/kzcECp24WiFVQL5IZiDWIXQNhQMJkRs5yaxIZARNmM0YzRMBjfaC/YvNAS1zcYGWejYTz75pNhcsS0iaCXsPLPD3LJly9AJPSHUj+UehMrEofZBokA6bEKiETLo2eipXLmypKZMtDI+NLQ9NgCxqfqFs68sd9mc4aeCBg/x+gUyROOBgPm42XTT42j+uGzmsNkG2TKhYEPEnqsCkVeoUEHaoO+8V5bmXs0U8wjmDFYSlMvkycrCexSQjUZWF+DE2elkEOoKITIZs0Ji8mNCwiTCUUTMKRz1827car1pKxM644WjhZC7rgwwW7BaYpMMwsY8Q7/TfrRxNosZazyTP+MAGzPaNGOdOqBp33fffVIcmjn7EfQt5q5wqzCtn17J95JLLpH9DvqNTUMmY8w3tM87bjWNXcMjkC9rNjsUPkpqhKKNhRMIGK0CkkOrYFDqKYJQ6YJ9LKHixvM9XYLWwVIyVsG+yCaNl9RizSNYfDRQJjWvHTFYPH3HkTfV8PRdXq5obtRBNwrzklci0zIOo1mRsfoJ1VbVOoP1Raj8GfNMpsHSkF+w95Fwoo7Yp3XPgjIYu+FMb5HyzOTwjCFj7WQGHhpDNGSVKDLWutrVEDAEMgeBjDBTeLszNxqAN73dGwKGgCFwOBBImw08PTERL5DinV+86mX5GAKGQHoikDZkjO0qXgRKPvYfy6fngLdWGQLJikDa2IyTFWCrlyFgCBgC0SCQNppxNI21OIaAIWAIJCsCRsbJ2jNWL0PAEMgoBIyMM6q7rbGGgCGQrAgYGSdrz1i9DAFDIKMQMDLOqO62xhoChkCyImBknKw9Y/UyBAyBjELAyDijutsaawgYAsmKgJFxsvaM1csQMAQyCgEj44zqbmusIWAIJCsCRsbJ2jNWL0PAEMgoBIyMM6q7rbGGgCGQrAgYGSdrz1i9DAFDIKMQMDLOqO62xhoChkCyImBknKw9Y/WKGoFwHo7VzX2wzHKbLlheiXhH/dPEa1qe4AvXj3nK+AgnNjLOA+B41lUPuXnIJi5JH3nkkZi8Lsel0CCZ4IgTX3XB5LfffhPnpng1njx5crAoDr9qOM/EoWYkwdMxTkhx0InzUq9Lerxn45CVH05Lv/3220B24dKtWbNGPCq3atVK8v3oo48C6aK9+eqrr9z3338fMjpl3HPPPW7kyJEh43gDRowY4XBGqoKz19GjR0s9cTyLI9xIpPzSSy+5Jk2aOHwTqpCG9wMHDhTHufree6UtpNPfWWedJY5wd+7cKdE0fMKECd5kck8927RpI97S/YE4p73yyiuzvcbrNeXgzxJnrlqm/4pDXQRv2PQtZYAPnrIjSSzjK1Je8Q7PSDLGW653UOYW1IULF4qnaW/6999/302dOtX7KnCP63YGXLwF7W/69Oni/Xrjxo3xzj6m/PAMvXv37qBpcB8PEW7fvl1cwweLhIdr0uPcMpysW7dOSOHRRx918+fPF+edzz33nCTBA/Ntt90mhL506VJXu3btgEfpcOlw2HnDDTc4vB2vWLHCDRs2TLxbh9Oug9WROjEOgsmtt97q7rzzTvESffDgwWBRsr2bN2+eTGDe8QrpMLlwZawR59NPP82WzvvAJAVh+xWH22+/3b399tviYRq8ggmEzSS6cuVK+T3++OPiofqyyy6TPiScur3wwgs5+nTOnDlCrOpA1Zs/2qx/0iYv6sgVz+VaJh7BH3jggcAz3qdRhPCEfcsttzgmTDxjM3ZWr17tLSbHfbTjK0fCI/AiI8n41Vdfdbt27zos8KL1fP3110HJ/oMPPnCfffZZ3MtdvHixuEfHrf0bb7yRLf97771XXLXrSz5K3KojEB4a6JAhQ9zYsWOF0CEvJFw6PBCjUf35z38WDXfv3r0OTenmm2+WDxetjY/FL6+88oqUV7NmTX+QPJOGXzRu3jdv3uyGDh3qypcvLw5me/To4ZYtWyb5fPjhh65u3bquadOm4qG6d+/eQth85OHSbdu+zW3atMmh/eFhm3S0df369Tnqy4QBQUDYU6ZMCUzKd911l+A7bdo0R3v9cv3118v7zp07+4PcU089lY1MDhw4ECjDG7lq1aqOfPC+jadp2snYQpiYWBWo0GZIC6y8Qpv4DsaMGSMadiRP3niA5gfe1113nYxxJlWkYsWKrmDBgkKK3jLAJVg7vXFC3eMwWMskjv+ZlVW3bt1k3BNeq1YtxwThbTvvvRLL+PKmO1L3CSPjrVu3ysxOhzEDopWosEyZO3euLPXeeecd+eDRdlSYPWfPni2EsGjRIiEADYNgIKcXX3xRBtuWrVs0SD50Oovl05LFS6Tj3nvvvUA4N5Ap2hvxtm3bli2MdLNmzZJyg5HNvn37ZLZnYHg1VPIhvy1btri1a9fKPc9+WxeY3Hfffc5b52wVCPHAR9WnTx/X44we0mY0GRWWg15tHLx27fp9IoKA0arOOeccV7x4cfloISMkXDq0I5anV1xxhZAXxH3CCSc4JgM+GupSrVo1rULgeuKJJwbu/TdoT2hnkBneuyMJWjblqKAdnXLKKfKIiQAyVqlevbojf8gtXLp9e/c5iK5QoUKSFDJAq/Zr+vQb5pESJUq4wYMHCwmNHz9e0vTv31/IqW3btrJ81jroNRwGYOh1mPvggw+6Sy65xFWqVEmTy5VlOQSIZsnEw3K9Q4cOEgYpFilSJBD/zTffFBdip512WuAdN0y6DRs2FA20X79+snLwat/ZIvseWFnyvRYuXFhCWDnQ93w3Koxzxpn2ib6P15WVQOvWrbNlx6oslIYf6/jKlvERekgIGUM6aA2QFp3F0kI1MtoN6UHQDKRixYrJoNGOB9Rnn31W3nfq1MlBgF5bEcsu3jFr1qlTx02dMlWeyReCaNmypQx4wrhnyaPCwOajZrATjnajtjE0DJZikD0fGmVgf/IKS2A+XtrFvUrJkiWlrNKlS7sKFSrIPWVDXF7hI6pRo4YrUvh/H5M3PNg9A546YzetWqWqq1y5sluyZEmwqDneLViwQGxzpIWQwSwaoW8gOLDDVosmic/A+vXrS5vQfMORTrAymBg6duyYrT+CxQv2jg9zxowZouETzhgpUKBAIKr6M/SbPiKlIwM0Rn86iGjcuHEyGTFOvCsS+h9tlX7mF4tg/9RVA5ouEzrvggkKCwR70UUXOezGYI8wdrt06SL3mMX+/ve/u7/+9a/y7P2D6YL80f6ZAFEuwDCYMLlPmjRJfky8rAYGDRrkGNcIJM7KhHGnExff93nnnZdNyQqWd27eMRlS/2ATPvmxmsHMxA+lAcnL+JIMjsCf/EegjBxFQB4QGgMZYTApaBqZAc9H7v+oV61aJVoBGyxIz549ZSkHgaMVQO5oGCwzIfKyZcvKMh3Nj7z4ofGULFUy28cC2aIls9SBNBGImA+WDSU6n06+/PLLJX2VKlVy2OnQBpggKBONno8YLY966U8/VCnA94c6nn322b634R8phw+YjTPk5JNPlo+KeoQTtGVWAWhHKv7JQd/7r3yQ/NAG0TTR3vLiDJa+px2sFuh3+kJ/kfJlFcGGILZAHStg7tXy1ObrJehQ6RhHXiGtNx1h5I9CgW0YLZw6++2f3jxivacO2JUxIXjbTznaR4xtVjmsGIcPHy6KA1q5V+gjNPdSpUoFFBJwRVAkCGvfvr08s8qZOHGiTCzywvdHV1uYRK655hr5xjQKkx/julevXqJAMYFgLqNPWeHGW/h+6Ws0dFYyfmES0olFJ7fcji9/3ofzOSFkDFjNmjULtAvyUwLUl2gz+nHpO67MvHy8LOFUGKQsQSE8Ph40WDZH0DSJT3gkIT2DigGpwgyssy/khSbAQAgmpGdThTwYJCx1WfKjJR8u4cNCe4eAGWwqTCqQBB8hxOE3hxCPCQv7HxMO6f0SKh1l8gE8//zzUgZYs+GFlh0KG3/e/mfMLPSXanSYoSAh+hk7aiihjYMHDRbzSuPGjQPRypQpI7ZTfYEGyPIfwkBCpQMvTEpMusQFN+zrqgFqftQPsmTzDAxZBQ0cOFCD83yFZMFDT1AwpiD7du3aOTaNWZkwrqhvuXLlRCFhMvaSMWORlR4/tGMlYTCG5FmZqZ2ZCvOt+ScibQiKDUpIKNG8WV0xMTC2ULZQSkJ9e+DLhAbGOm5QeMBa+ylUebxHkUOpAxMVxhF7ApxSwdynwqSUm/Gl6Y/UNSFkDGl6O54OYcDxPpIQp3nz5rJECxaXUwXM9vpxQhZ+EW3jdwUhEAT5856NjmD1YLnqrXMg4R83EAearR67IQ805cNJxqwSIAY+Lh3QVAetB3KGIDjaxaBt1KiRDFS1CdNWtGcIhQ0Z0pAf8ZBQ6Zjs+NAgSVYnLE/5CPSj4kOkTrHIqFGjHD8VPiTwY4OQSe7zzz/PYXukDDS7q6++WswbmpYr9eLUAun4aMGCjSTaHC4dtlnML2h1mB44DYB5DNODV1AmyAeNGY0R05hq38SDTPj4YxUmAgiW1QY/FTblMM3pKR1MCpAyJwkoF/MAEyKC+YI6MUl4yRazGrgwaTKWUTLYgGTcsspDk0SzzYtgKuEboP/YVwgnDRo0kDHHagjbP+MPU4hunoZLSxiTA6dBmIDoN4iczWlWSH4JN778cRP5nN1oeYRqwuYKs7sufRg0bBhFI3wYmA7QbhCWowxGZmBmaDpVNzDQilnG6cyt+avGrM9cIWM0RDZDdDaHTJm9ETZM+AB1Yw6N0rs0RYPC5omZgV/fvn1lFx6SUuEj1c0zfee98gGzoRbth4ytnJMHXiImPwY3GjPt5iNl0xGNiMHuXYFA1tjqsRlzAoINKZmosvIIlQ4NkwHPOdCuXbuKzfiOO+4ILOUvvPBCMVtAUPEQ8OdMrl9oHxMfR6DYyNEfZAMR8aFiPsFshe2QI2tIuHSYACASjsgx4dx9993uoYceyrGhWDVrZcBmEeRFPMYBfcapEgTTGcSARhaLoNEx/iIJZgCUF2zGjDMmfMYewsoumjPakCbnl7HrghGatHdDVDLLxR/qhgmFyTycUD5mruXLl8vYBDNIFXNJNMKGJVo4G6ncMx6ZnL1mt2jySaY4+bI+WJ+OePirB0FBOnxMaBdoU+zo6iYdsxynLEIdiud4GNoCxKDLN+18iJqTFpovHxgfj9eGCqGiQWNKoPlsSKjW9NZbb8nA5JkBA9mpuYR0zOQs4VlOMSEwGCBZloIcN9LNIlDko0DD4ZwkgpYHIerEwYfAUk6F/DkFwoBmIy+ewsfr3aknbyYy1fi5QthoNN6TCMHSab2YnLTP9B1XJkRw8E8S3jjR3j/99NNyLjkYIUfKg3HGakYn50jxveH0FeMynKCVMk4YD35hXDL2/PZmfzzvs64uvO/C3bMnQRlenBnP/HgfjVAmddUTJNGkiXec3GDlrQPjLZH199YlL/cJIWOtMAMB7dhPEhoe6cqHxkfvH3jkG8nsQRzIiOWwPz114uclVq0LA528g4VpnHBX0jN4ID/vR6RpGJi5zVvziPbKBIKmjnbHcUDORzNJJZNgZkIDxw5sYgikMwIJJeN0BjYV2oaGzgoDEwsbqhyLCjZBpEJbrI6GQKojYGSc6j1o9TcEDIG0QCA6w1JaNNUaYQgYAoZA8iJgZJy8fWM1MwQMgQxCwMg4gzrbmmoIGALJi4CRcfL2jdXMEDAEMggBI+MM6mxrqiFgCCQvAkbGyds3VjNDwBDIIASMjDOos62phoAhkLwIGBknb99YzQwBQyCDEDAyzqDOtqYaAoZA8iJgZJy8fWM1MwQMgQxCwMg4gzrbmmoIGALJi4CRcfL2jdXMEDAEMggBI+MM6mxrqiFgCCQvAkbGyds3VjNDwBDIIASMjFO4s3GcyX8Kj5fnLVu2xK0l/Mf74UTdZYWLk+phYBAJh7y2EeeZ/H/S4QRvHsEEF0/4xMP5bDwkVFtxwICH58mTJ8ejmCOWB44S8O+HG65wviuPWIWiKMjIOAqQQkXBMSSuhxIlOJ/EDx4egHHZhO82nE56f7hWnzBhQlRVxP8aLp/4T+bxTEzeKnysOMXEYSSehXGThf+ySPLyyy+7Jk2a5PjhbRvB88lLL70kzlNvvvnmQHbedNQHH3Z4TQ4luOjyOp9lgsJVk99119/+9jf3zDPPZMsGQlPPyrSTdLSRH84s8b4Si0ACLVq0CCSh/vwH/n7hHe7Fggk+IvELRx1wz4WPOhXqiL86/AMGcw3lx0LTcfWH4aD2mmuuET94+PSjj73khWNXXI3hHuyuu+4Sn4fe/PCETlsZf3kRHKbi4MDrRDWa/PA9iDNVxu3q1asDSXBGiws2JiwmlFSQhHiHTjQwDCCcb+L6KC+Ch14GKX7gGLC4bEfIFx92eCQ+nC6UsrydifNHyuSjvOyyy+THM4IG261bt2z+/34PyfmXiQXHovjtq1evnmgVOHjESSuefPHdBznzseLBGEemEDYelHHWGkrQ7HAW6vcWrB5FcBzKh4wjU6+fQm86fM0tW7ZMHGi+//77Qb134wpLNXYIhL7AVZNfsyQvjad15lk/WNqDN208ROPbDg/V9C2EGK0wwXgJjbzVyW00eTDBgz3em3FFjwNYHJyqH0CIhjF20003Bc3Oi4U/gjcM7frKK68UXOkfvF7TH/QNfUtctGJ+jHPGAeOJcaZez/ESzju8audF8OCNHzs8jTN5RSOsBiFh3HIxAYK7V9R3ZbAJyxsvWe4zkozp8D5n9nFVq1SNWz/w0UMmaDJ8fDhF5YdD08MlRYsUde3btxfSqFy5co5iIBaci+KQFYGIINP169eL1oU2gkdeyJJlKB8VRIzwsfHRQUR8hExgxFMHqpSLRsUHDBmjpeERmqU33nrxXKzOOHHaqeQrmf/xh3rQF2i8OHj1i6aDePBgzUfFpAFBhRMcw/IhUnf6IBbB7EM/6gTDh847yPiVV16R8r35nXPOOY7VR14FbXfMmDHi3RgHquCBg1gEL96sRCB0nPHiuxATFSuJq6++WvowN+VDsigLaOAInsOHDBkihNy7d2/xbs1YxkM2z/Q5YwLifuKJJxxaNX3OONuydYt7bvxzATKnPRD70KFDRfEZN26caK6NGzeW53LlyonvRa03Xrvxps3kx6pJiZTwN998UxwY43SY8bp9+3Z3wQUXyGSLGYLx4feqjRNgxgsOgfPnTw2aS5iZgo8XTYtlGksyr+bA8puBgvdlZkyI4rvvvtN+E9MAHxnLWz5kr6YDKfLx4GWZD51BosKHzAeK1rJk8RK599vcWN6yRCbetm3bNKlcSYfbe8olL79AHjg3ZYaHwHRpiaaFNuMVPGP7l2Rggqt4b529afz3eK+G+NAk/A470RIgXtzVq+BpGW0eUwNLbzQttTWzpINsvYI7+ttuu01eQQZ8MJg88JyMQAR8XPQdHrapD5oKS0PwiyRo17hWv//++4VsHnzwwYCGSlqIAAwheEwLEHqjRo0iZZvtQ44Y2Rdh9+7dAa2PIFY4O3fulFiYWzAP8GPFwBhkhZVXAT9wZoVAf0JkXo2eCZCxtWHDBvE03rFjRyFrCCkv5TPWIViv0B/0HR7PmWiQAQMGuDp16sj95Zdf7lasWCHjGUKGnKlfpYqVxP7NOEL4PuhfCH7s2LFCpuTHGGEFBpGrUA/GI45xmfxmzpypQfKNMD6YING+uad8BBLmF0wYlxAy4zZVJCFkDOmgZaB9nXLKKTJj0nEqkB4EzYxYrFgx+WDVJTxLJ0iG93QQ2p3XtslMzTu0PAbQ1ClT5Zm8q1WrJpor3qgJQ4tVTZBwbK8QJ+RGOOSjHyLkhk2Sj4RBQxl4efYK9WZWR4tUoiGcus6bNy+wIURezOT+5RMaER9/kcJFvNnm6h6iZ2Lw2i7ZLEJrBHO0IbRNhI9/x44dgk+owurXry+EiJmA9LfcckuAyNHS0HKZgNASH3nkEUd8FSY8MNUfZI1QJgSE1oU9kg8Y+58KWuC1114rdX700UdFO9VxoHHifYUUVKMnbzRHxhwCGaCdsdqgDUxmVapUkbC8/GESAouHH35YtDjGJJhCikxImIiYJOhPNEbKZMIHY7yb51YoM5R5ARONEjBXTFMIJD18+HCxpWM6gowRJkomKZQohPFNv1JntNcbb7xRxhuEzLfpFb5fSJMJhzRwgwqKFRM84eyFoCCkqySEjCE8CI1OZjl4xhln5MAXbQENjg+YWQ6iQlatWiVp6BiWOpAK9kGIEIEoyI9lXs2aNWXWhhwRBnKFChVk4JQsVVLudZBBkJAGmxgshWrXru2aN28umwCkZeDygZA3HwNLSD4Ir6AVMJCwN7KxQB4IBMsMvnbtWnneum2rkLqGy8usP2gNZ599dp60Hc2LCUs/FN4xeVC+X7NUUwDYKE6ah/8K5uPHj5fVCh/lueeeK5oraSFgPri+ffvK0hXNUYU+4YPUn2pcTGbYRtHOIJYrrrhCVh6aDuJjQoSgGTOsosjjcApE7N2wY/Jl8lZhnGCTps49evTQ17m+sgnKagPFQPcXwBYbMSswzD2MO+qAlhlPYbz5V3/R5M9mJ3UaNGhQ4LskHd8GyhCTO6sGTAQoJ2i+aNwqELQKkw2TDt/3kiVLZOJjBaDfCkoNKxKvMGbTUf6HyhFsHXZG78Ding/WKwxMPnK/oCFgrEeb4IfGBHHr0hm7KBosdq3nn3/e7dq1K5sJxJ+fPpMeDWjixImBvJn5NV8GFQQfzPapeTBxsCGCLRWtHVMJdWPwYALQ5dWqT1bJLB8uL80zN1cGP8tArwYClkw84BFMmBghPK9g5sFeiGDP5CNBmKzYPGJiQwPn42OzkuUlm06saliKqtBOXVJy1XZDQPSlCnXUSVXf6RWCYjLgI6Wf0Ba9pMnk519paFrvlThbsjZ+vMIkxKoJYYL31gmN32sCgiCxWTLxqECoXuyoS7TmA8Y+ONMecFOhrUzsaIaYLqhfsPaFwyJcGOWgFXtXpLxDsWHzjj4NJWjN1Lt8+fLZojChUkcw4vtF2eCZeLrCzJYg60FXiIxZTJLYnxmLutpFofKaKP3p0+k5IWTM0sr70dHx3udwAJMWjZWPQX/Y2/iIkOnTp8tMylKKQQVh+EVm1uwbrzJ4eM+Gg+bLBgnaHwKJRFtH4qMNQ+BKGCzh2b3m/CMfuH+2J028BE1rYNamDx+NCtoIEwT2cCYsJhkv6WALfOutt4RoSMNKAO1MCR0SZxnNRIpAaLQFeyEfEpoitn4+Hu4hgkgCyaANUQ9wQgNmZeIXJjRMFiyBu3fvLloimhcrEDRVCAQTh5pd/Om9z0yYpOUYFGkxmTFm1LbI5iD7EJAH/Ydph/YgtJNJCQVAtVjes2eBmYX4tJt2aH6Eh5OqWZurkBgmj+uuuy5gUiMNqxnqxsSHuSaYoDGHwiJcGHmxQqEPMT0hjAlO09BenTAlIIY/rIyYwDFZIHxTjDs9Ysb4YXWrwkR01VVXiS0YezA/jh+CIVhSF/oZLBgHH3/8sSZNu2v+RLQImxtaADMgO51oV3zsLNEjCbMtGie2STQ9ljnkhdmDjmfpqyYNtGhmVa9dmPwJJ4wPQYWPi6U1MzXLK8gLLQzyxyyBOYUjR9g40Sj4WJVoNQ+9MrnQJjQqtenRTrQdBhnEDLn7BY0KuzXLc22DP06kZ5adtEE33rzxMQOw6cZSEk2djxVCQiBGJjAmH0ic9mJC0OUlS/PRo0eLWYilPNoOkxbkRR6YRCBK7ONoTcHK99aFe5bJI0aMEFswHz/95D0XjEmC8sEOLRo7NZMcwrljNiQ5WcBEDBkG0xwlsucPZMwmKek450t9sUPqCQ3agKarY6Bjx45ieiELTD+MATa0VNhE4wQC8TCrQczk5T8KRxrv8hyC9a78MHtBNCgAHBdj8xpi4xu5I2uVwdgJJeGwCBfG9zMxayUIrkwkrD5ot565DlVeuPekZ8WKeUUFxUDHHeTKqoFvlc1ZxjuTvFf4xulTzIZs6LFpDqEzZhknXiXDmy7V7/NlfUg+HfHwNwmyYkOLEwV82HxEaBK6OYNWhn3Q+2F6a4WWhMYCmUCIDH4IDMFui6ag+fIBQLp0pgqEisaBzZfmcxKAwcGHhnbIIOEZsuBomn40pMO+xWDAZMEHA3lBTNg20fAoj3DKRKvUtJRN/thWGZik9wv5M9GwYaGk448Tj2c0fCYJiJCP3Esu5M+E5reHa7ngxQSok4y+54rmQn8EC/PG898zHkgXqkx/fO8zdQk2sXnjhLpn8mPM0dd+YfVAvWLJm/b7bcz+fA/nczgswoVRp3B9HkudWT3ceeed2TbhtGzGHXgy8WBGRCmLVnTMomFjEmJ1km6SEDJWEBnsaBKQam6EDkKj9Woc5EO+LHHCkQJxGCTE8aenTvy8S1GtH2RE3sHCNE6oK5MIExBkG0ogpdzkHSq/cO9DkXG4NBZmCIRCACWII4issFgpqLAKYeXL6hUbOKYRlKHcSDqTcULMFNoJLDlya5sij1BkS56hwrxlqyau7/TKsphfMEGLipUsIVjsxGjzfi3UX0asefvTx/KMjZXNOBNDIB4IYHLAFOYlYvJl5cnYxyzE6SdMRbkVTBi5WUHltrwjmS6hmvGRbGgiy8I+zckM7J8cRDcxBAwBQ8CPgJGxHxF7NgQMAUMgAQgk5GhbAtppRRoChoAhkNQIGBkndfdY5QwBQyBTEDAyzpSetnYaAoZAUiNgZJzU3WOVMwQMgUxBwMg4U3ra2mkIGAJJjYCRcVJ3j1XOEDAEMgUBI+NM6WlrpyFgCCQ1AkbGSd09VjlDwBDIFASMjDOlp62dhoAhkNQIGBkndfdY5QwBQyBTEDAyzpSetnYaAoZAUiNgZJzU3WOVMwQMgUxBwMg4U3ra2mkIGAJJjYCRcVJ3j1XOEDAEMgWB4P+Deqa03tNOvA/g3QNPwfja8v7n9LjgwY1TMAkXFmt8XPbwn9oHcwMULC+8lSDB/oP+3IaRn79N4bAhvokhYAjkHYGk0Iz5z9e9norDNQv3LdHGDZePP+zzzz8X/3nqxZZw/N3hW48frpLwjacSLkzj4GIGT7cIvsF69OghPufwsOF17Y7XaDwkUE6LFi3EbbvmoVc8L+OgErdPEC3ehHHSyW/UqFEB56i5DaOcUG0Kho3Wy66GgCEQHwSSgozRRqN1wU1cr6vv+MDwey7qPBQHqXiVxsMxrsuXLl3qcPeC11skXNjvOf3+95VXXhECxlElXnpxubRixQpxQ4NbdjRQ5IknnhAvxbiIx1svzhr9E84777wj3pfRmufMmSNkjgvzmTNnuk2bNgmRklduwyK1yYsN5ZgYAoZAfBFICjKOb5NylxvukGrWrCmuyjEV4M8L77VNmzYVj7a9e/cWP15opuHCtHQ8R7O8J/227duEMHHlTt7k9eOPP4pfPOLjKbtPnz7iqbh+/fqSBjdNXsGBY69eveQVGjferitWrOjKlCkj7sx5h+Q2LFyb/NhIQfbHEDAE4opAwmzGeElm6Y7rbr+DQRx4vv/+++JRtnTp0uJV1mvDZSlO+NatW4WMOnTo4I455phswKDNQmhDhw6NyoFo48aNJb36qINMva7Eq1evLl6hDxw44MKFqQaJJgv5osnu27vPVa1aNdBObLxo2phnaAv5kb8KYZhjVMAJHMqXLy+vSNe+fXsNdjVq1HBvv/12nsLCtcmPTaBguzEEDIG4IZAQzZgl+KxZs8RBJ8SD11gVlvSTJk0S2yjaH8Q1fvx4IS2Ns3nzZiHxdu3aCaGxXPdLqVKlhOD8JO2PF+r5l19+ybZpp16b2WQLF0Z+aM9osnjCRfzxecckRF78aLN3g5Cy1IRBXGy5ELsKk5U/PmUguQ3z19HbXi3XroaAIXD4EEiIZrxy5UrR7OrUqSMtO3jwYMBGunHjRiHeLl26iFaJNohNdO3atY4lPIL22qxZM7kvXry4e/TRR4WElEAIwOTAL7cCif/rX/8KJFdyhATDhZHgs88+c5UqVRKtnWfi//Of/+Q2IHpigbCjjjoqsAFHBMKOPfZYiUsd3n33XXfjjTcG0lIHSFcFQtf4uQ2L1CYty66GgCFweBBIiGa8b98+WXZrk7xHuThZULZs2WzHu8qVK+f27Nmj0bMd5SpSpIhoidhg4ynYYr0aO5MEhFe0aFEh2VBh1MGvyaKlb9u2TezEhGOaIH3JkiWlLZRF/ipMPKRBFi5cKDZhJVvegYd3g2/9+vUB4s9tWLj2UqaJIWAIHF4EEkLG2Ij9mqI2k7Cff/5ZH+XKs9+urBEgNjRJr1asYXm5tmrVyq1bt85xrAvNExtw586dZZIIF0a7lixZ4rBjq6AlYxPGnIJJghMPhQsXFrsxcTjqhs2XtGz6cbKkTZs2kpwTGRxp8wrmGU5e7Ny50+3fv182FtWGnNuwcG3ylm33hoAhcHgQSIiZAvPB8uXLxYzAEp2NOJVq1aqJPXnHjh2uQoUKspGFmaJbt24aRY6WoQmjpXJel80tNGSvbN++XbRNSJEyYhXMI7fffru75JJLRCPmecyYMZJNuLC5c+fKiQyW/SqUf99997kRI0bIUTlWAg899FBg0/Gaa66RMGzkmB+GDRvmatWqJdo0Jhzs6l7p3r274Hf66adL2zp27Bgg7NyGhWuTt2y7NwQMgcODQL6szaZDhyfr0Lmiab7++uuiBXJKArME//qNf1iBoB2iKbJ5R1z+sQTkhKA1oq2iYaIVclSsf//+snSXCH/8WbBggRxBgwC9JzG8caK5R/NGY/WTPWmDhT388MPuzDPPdCeffHLQ7DmNwTnmYMIKAA1f/0Ud2jjETfuDCSsC6sBmoF9yGxasTf687dkQMATij0BCyFibwQ6+bmDpO++VzatgRKNx0CJDmSeYY7wbYZrGroaAIWAIJCMCCSXjZATE6mQIGAKGQCIQiN2YmohaWpmGgCFgCKQ5AkbGad7B1jxDwBBIDQSMjFOjn6yWhoAhkOYIGBmneQdb8wwBQyA1EDAyTo1+sloaAoZAmiNgZJzmHWzNMwQMgdRAwMg4NfrJamkIGAJpjoCRcZp3sDXPEDAEUgMBI+PU6CerpSFgCKQ5AkbGad7B1jxDwBBIDQSMjFOjn6yWhoAhkOYIGBmneQdb8wwBQyA1EDAyTo1+sloaAoZAmiNgZJzmHWzNMwQMgdRAwMg4NfrJamkIGAJpjoCRcZp3sDXPEDAEUgMBI+PU6KegtcQP4OLFi92aNWvcli1bgsbxvsT7Ce6qciu4ZHrppZccHlhyI7jTwqs1LrFCOaTNTb6WxhBIBwQSSsb4vfvggw/c9OnTA96RvaDmhTi8+aTr/Q8//CC+BD/88ENxvqrt3Ldvn2vWrJlgq++4PvXUU+7ee+/1vorpHn+EOGnNLZHiu/DTTz91U6dOzTWhx1Rhi2wIpBACCSXj2bNnu7Vr17o6deqIA0+vR2UwnDRpklu9enXc4fzmm29ykAFaJh6cN2/eHCgPz9OvvfZa4DnZbg65Q65YsWJSLa+TUxyZFipUyL366qvZqjxw4EDxPJ3t5RF+OPHEE3PU9whXwYozBJISgfyJrNW6devExXwoT8pnnXVWnjw7h2obJNXnzD6uapWq2aLgwPTdd991J510krxnWc4vWaVokaKuffv24tS1cuXKgWpOmzZNNOA///nP4kFbCXDp0qUyCfXu3dt98skn7osvvnCFCxd2CxcudE2bNnX9+vUTz9WsSJgoeV+pUiV3xhlnuOrVqwfy997gxRuzA96zL7/8clexYkV35513uiuuuMJpnZ599llXr149wZVJ4/TTTxev3t587N4QyHQEEkLGfOS4rGe5u2LFCsfytUyZMq5NmzbSH15ttEnTJjlIc/369Q639hAJabFhDhgwQD5wiGTlypWybM+fP7+rX7++q1u3ruQLAW3dulXKXbJ4iVtVeJVolh07dgyMg59++smRf82aNQPv9Gb//v1u2bJlbs+ePa548eKubdu2DqJDq+Y9mj2EXqtWLWlXlSpVXKtWrSQ5pI45gfJJQ1qvNkskwrDJnnf+eTnarHXwXqlDhw4dvK/EfozXbPLv2rWrmzlzpjv//PMlDpPfwYMHHWS8Y8cOd//997uhQ4e6iy66SEwY1H3w4MFCrpMnT3Z/+ctfHGkg2Xnz5mUrhwfiQNrDhg0TYh80aJCbM2eO4DFr1izJi775+9//7tDWlZx1ssuRob0wBDIYgYSYKSDIli1bunz58rmGDRvKPQSmgtmC3+7du93+H/br68AVMoTQMSNUrVpVyBbiRSA8ND4IFrsp5AC5ItWqVZOyjj32WMmfOqCxeYV0aMdsdnkFMp04caKQcPfu3WUigIyI98svv8gEAPlSt/fee8+1bNVS8oHcEezihHXq1EkmgAkTJjhs5l5Bu6xRo4YrUriI93VM96+//rpouGAL6b7yyish04PPkCFDBJMLLrjALVq0SOIyaaHh1q5dWya5hx56yEHwfsEGPWrUKNe6dWvRhAsWLCgbib169ZI9AOLTH0yGSsT+POzZEDAEfkcgIWRcunRpV6FCBakBGjH3JUqUCPQJJMAPu2coIey8884TwmWJrYL2isZIvpg/IBnNG42Uso4++mhXslRJuS9VqpQmlSuTAOFffvllDkKmPDRd8oOAKAutGDn++OOlPEinfPnyotlS3t69e93OnTsdduqePXu6cuXKSVq04o0bN0pa/UO9zz777EB99X20V7RQVhWQ+pIlS2SS2LBhg9jlg+XBpKQCnmjNCNoxZM7EcdNNN4nGX7RoUY0q1++++04mF7RmMOHHpMdK55RTTnGEb9q0SbRsyNnEEDAEwiOQEDNF+CpFFwqJQpp+QbNlifzoo4+KvRPNG4KNVpSEWH6TVoWydu3aJRoucSBftOJobMpo+JhkHn74Yc1OzBmQeTwFjR6S56gbP4S2oy3HggEk/cADD4g2zAoEM8Ybb7whk4zWFy0YmTFjRmBi1TCuaOVgiD15+PDh3iC7NwQMgSAIpCwZB2mLvMJuy0YUJLkl6+wtZgo0Rq/2DJlmHUQIKWjUkM1nn33mypYtK/EgzjfffFO0RtWm77rrLtEgQ2b0R8Bxxx3nWA2gcR5OYWPyqquucv379w8Ug80XMr3uuusC7yLdXHvtta5Ro0bu6quvdl26dHGjR492HGvzCqSPXXr8+PFu5MiRjjZOmTLFdevWzYEPq4BLL71UcKftJoaAIRAegYSYKcJXKW+hL7zwgmymYUOGVCEGzuN6hWU82mowEaLOCjj11FPFxKBxIHTyVNMJdulo/xEFpgtMAHpMj01GNvzULKBl8MxGmf+9hoe7fvvtt2KfhQy9grkH0wh27Gjl5lE3i72bVUafPn3cOeecI5uS/vQcBcQUwSYieHGPqQVp0qSJmFvQkE0MAUMgMgJJqRn/7W9/k5pDdnzgb731lvvTn/4kpwMiNQmNjCU1m1AQKLZj7LtewabJhhobgJTBaQC/sBnnPXKHhtygQQP32GOPOZbxbAZiqsBmzKmOcILWyIkGNGtMCWyGQZKk9wpmEP4RTNWsTUkmjFgEOzUTRDChXOS0004LBGPH9dpywQicEY78sfGHaYW6H3XU73M299igVSB5NjWJByZesxFt5HQGdmcTQ8AQiIxAviwyCrNgj5xBssbghAMk4v+HJFpfzBiQNeYIJRsNC3dluY5m6938ChffHwZJoWHr6Y9g4ZBeKsuqVavc888/Lxr5DTfckMpNsbobAkcMgbQl4yOGoBWUAwH+5SRz/LnnnptD+88R2V4YAoaAIGBkbAPBEDAEDIEkQCDtNvCSAFOrgiFgCBgCMSNgZBwzZJbAEDAEDIH4I2BkHH9MLUdDwBAwBGJGwMg4ZsgsgSFgCBgC8UfAyDj+mFqOhoAhYAjEjICRccyQWQJDwBAwBOKPgJFx/DG1HA0BQ8AQiBkBI+OYIbMEhoAhYAjEHwEj4/hjajkaAoaAIRAzAkbGMUNmCQwBQ8AQiD8CRsbxx9RyNAQMAUMgZgSMjGOGzBIYAoaAIRB/BIyM44+p5WgIGAKGQMwIGBnHDJklMAQMAUMg/ggYGccfU8vREDAEDIGYEcgoMsat0Pfff++WL1+eDSj+I/RovDxnSxTlw+bNm8VDcrDo4cKCxY/Hu8PVznjULdo8fvvtt2ijSrxgbQ72LlKmocZPpHQWbghEg0DCyRgXRpEEf3Y//fRTpGgRw5955hm3Y8cON3/+fImLU1JcZf5NVQAAIbxJREFU0nft2lV87A0aNMjt3LlTwvCM3KpVq2w/PEx/+umnEcv5+OOPxc8dEdesWeOmTp0aNE24sK+++kqcek6YMCFHWnzOtWnTxqlLI42LE9BmzZo52oFjVq9Hra1bt4qvP3wJ4jyUdkdLSN999534ItSK+J9ffvllqSvla70WLVok0e+8806H41K/4HH6lltukdekefrpp7NFwTN3586ds73D3x4+Dlu0aOEuu+wyB86RhP6k33B3heBj8PLLLxcnqvg+pA8QHLpSf78XbLyV4LcQ8Y8feWl/DIE4IZBQMkYzfPLJJyM2ZeHCheL4M2LECBFKlCghBFWsWDGJeeutt7oDBw64119/3UEejRs3dpdcconE+cc//iEOS3Fayg9CPfHEE8UpaYRi3MUXXxzS+3SktBoOkeKjD1L1k+acOXPE4zV+/hDioi2uXLlS6jpixAg3fvx4ccpKOG0cMmSIa9eunZDRjBkzZFK69957CY4os2fPds8++2wgnv8ZAsOhKeUvWLDAnX766Y46MGngrRp8vdos7XnttdcCDlJp5+OPP+7Wr18fKINJmvcqEP7bb7/txo4dK+VceumlUsaWLVs0StArjmSpL34FcZB64403uuHDh7slS5bIpISDWZVgEz51UPz940fT2dUQiAcCCSVjXNhfdNFF8WhHVHngNr5UqVKiWZEAbRHvxXh3xjHpwIEDRUOGvPyCVkY4HpDR1HG4CaGgXaG9kgYt7OabbxbiQfMjHgJZ+uNq/uHCKlasKPViMvDKlClTcmiNhFM3HJ3WqVNHNNTFixdLMsgbQcvDQSuTyjXXXOMmT57s9u3bJ2FoytQXTZY2qCnnxRdfFBLk+f7773f+Z0mc9SdfvnxSPh6v0bxPOOEEya9ly5ZChB9++KFGDeTdtm3bwDs8dv/1r38NEF8g4I8bSPPKK690FSpUkHKIj8YLFghtgawRMH3ooYccZR48eNCNGTNG+oT7O+64wzVq1EjqS/nvv/9+QGuWxGH++MdPmKgWZAjEjEBCyJhlNeSEC/lly5blqDQa1axZs9xLL70UIDR/JLRCPjg+pmilX79+DoJr3ry5JDn//PMlj5kzZ8ryFEKGjCArr2BnhtD69u0rrzF1QEyQL5MJpIfmDAFdcMEF4m26T58+rlq1ahJ/6dKlOeJq/uHC0OTID61QZe3atW7Xrl0OMvIKBMRS+5tvvhHs3nvvvQBhf/nll7Is98avUaOGK1mypKMvENqHOaFLly6CzxVXXCGaKeVg+qhevbq03/+seaJBUj6rHZbzTAyQHldwpz9VuOcdYSqDBw+WPoBU/QLOTBqYjbyCNq5mBkwd9B3Y0J+0H7MD42T69OlC8mi2tA9NlzzRstHio/XG7R8/3rrYvSGQVwTy5zWD3KTno0B727Nnj1uxYoV8EJoPpMLSnOUlmsuGDRvczz//rMGBKxoghIKmm1u58MILRfN86qmn3N133y2aI7bIIkWKZMsSbfCss87K9h6CYumP/Pjjj+65555zEEr9+vWFjGvWrBkgdWycweKSNlwYBNejRw/34IMPitmjdOnS7pVXXnHnnXee89vaMRVce+21ZOk2btwoZA0+CEt5JgevHHXUUa5evXpCoPoeGzSaLMJKAPs4hFeuXDmx2deqVUvC/M+8xMZL+ZgjmDBGjhwpKw7CevXq5c4++2yHWYhy33nnHZloCVNBY7/nnntk8ul0aid9LVcmmDJlygTw1EAwhvwRJgvwv+uuu9zq1avF/HXssceKZqzx9Up/019MBm+88Ya+tqshkFAEEqIZo5HVrl3bVa1aNUfj0TohtzPOOMNVqVJFNJlChQrliMeHBMEoQeSIEMULiAGSYJccGzEaJGTsJTrsiJAxGqpX+NBVqB9L4FASLm64MLS6okWLCpmximDFAHmceeaZOTaaChQo4KZNmyY/zBo8P/roo1IllvZee6zWk4kOYlUhjQoTUrBJUMP9VzYGKR97NOVjPsB+jLBCYGJgFcAGGuapYP1Wt25dNzDLFHTbrbeJqUHLYGJG4/3hhx/0lVyZZMhLBTsyRIz23qBBA32d4zp06FAxlWCOOeecc0KaRnIktBeGwGFEICFkHK49+/fvl+WzdwkbLn5uw/bu3SumBt0kYvMOuykfM7ZklVdffVWW+OXLl9dXR+zKKgGBMDDZoFGyWoCcvBOGv0JomcTTJXzDhg3FlOKNt2nTJtGK0S7jLUwgmBTQkFXUVEEbuA8lV111layYWB2pMJlgOmKD0CuQu5d0MRdhs34vy0SBackvmCbULMbKismcyXb79u0BLR5lQAUzEc+VKlXSV3Y1BA4bAklHxnxMaICHWzhRMXfuXFmuUh7khtbGR6qnLVj6s5zldEQsgu042M58LHl442L6KF68uNh02YSLJNu2bRM7qZomOLrH0S5WALSTe+y6kDyrlEgCubJaUfE/63uu5I/JAmy7d+8eCDrttNMcp2L0tEUgwHfDSoFTHpC2CpuDmHk4IcIkimBCYYOOlQ3CBipmEGz5rGIwV/iFscWG65atWyQIDZ7VFys02sReApuxtJVVCdr9SSedFFSL9+dtz4ZAXhFIOjJmgw0iw+6JoM3oGVFvY/no0YAgntwIJgq0zc8//1yWtR07dhSyYlNHN/DYCEIrQ7OMRbBFc0ROd/djSRsqLpuNTBKYA4IJGFFPfthraQ+2WgQiHzdunJg40JjZxMIkcUfWyYJohM0xTDi6gel/Jg9IlrIhNGyynCFWmzXhYNq+fXuxQUeaAFilYHLwCuaLDh06uP79+wsGbDayklFzBwTOKQ427ThHjAnGjz+TJG2+YeQNsrnJRHvbbbcFinnkkUdkDwEzEPhh2oHcTQyBI4FAvqyl8O9r4SNR2h9lcAJCD9JDqhAjAomgvUDEnLZguc2Hy5ITjdBrKsC8wMfDchhyyYuwu44WHO2uejRlYW8lv8NtbommLt444Ib2qZh7w8LdgxGEr/Z7/3O4tPEOYyXDyZdohLGjkwfjSQUcGGvBJJFtC1Yfe5cZCCSEjKOBljmCpWI4giQcDY9lrIkh4EeAVRUbikz8nEIxMQSSGYH8yVo5CDYcEVNv70mEZG2H1StxCEDG2H85tmhiCCQ7AkmrGSc7cFY/Q8AQMATiicDvxtp45mh5GQKGgCFgCMSMgJFxzJBZAkPAEDAE4o+AkXH8MbUcDQFDwBCIGQEj45ghswSGgCFgCMQfASPj+GNqORoChoAhEDMCRsYxQ2YJDAFDwBCIPwJGxvHH1HI0BAwBQyBmBIyMY4bMEhgChoAhEH8EjIzjj6nlaAgYAoZAzAgYGccMmSUwBAwBQyD+CBgZxx9Ty9EQMAQMgZgRMDKOGTJLYAgYAoZA/BEwMo4/ppajIWAIGAIxI2BkHDNklsAQMAQMgfgjYGQcf0wtR0PAEDAEYkbAyDhmyI5sApyk4qIeZ6J+wT2QX7777rtszjz94aGecROFT8BY5Ouvv3ZfffWV+L87Ek5kY6mbxTUEUg2BhJAx7s/xzMtv1apVqYbZEa0vJLxnzx7x5qwFb9q0yV1zzTXiSBWno88++2zAo/aWLVvEIajGjfaKR4zbb7/dxeISEWeueGmeOnWqw6eciSFgCOQegYSQMc4/8QD97bffuveyPDzHW8gblzt+mTVrlps8eXK21w8++KA4PM32MokeIEc8K5coUUJqhav6K6+80p1++ukOx664r//444/dyy+/nJBaqydtPC+bGAKGQO4RSIgPvKpVqzp+33zzjUOTi7egOX7yyScO9+5eYVm/efNm8T5dvXp1Cfr1119j0ga9+R2J+7Zt27pixYq53r17S3Fz584V34A9e/aU59KlS7shQ4aIVnvxxRfnqBLaK8448ezcuXNn161bN/EMDT6fffaZo/27d+92V1xxRba0eOeG+PU9bu8XLFjgihQp4i6//HJXpUoVd9JJJzlImIkhf/6EDKVsdbYHQyCVEUjKL2j//v1u2bJlsjwvXry4g5BUAwNs3K8TztK6VKlSEl64cGFZqs+ZM0dsrPv27XMQCtK6dWtXtmxZuYfY8BZ88skn5/AqjcZOvtu3bxfCa9a8matapaqkW758uZD2tm3bXMOGDR22WWy57du3D2itaPqYXiC4WrVqucaNG0ta758XX3xR8rnwwgu9r0PeY4ZA+vXrJ9c1a9ZImfLwxx/qo231vsemy4Q0evRoIc077rjDgVO7du0cpqL777/fDRo0yHXp0sWbTPL6xz/+4agrwmpi9uzZbtiwYe6LL76QNOCs7YOUTQwBQyBvCCTETBGuymivEydOdJBw9+7dhTwgA7VlQpiEV6pUSUiE97rxhLfoli1bCtEWLVpU7nn2EnndunXdf//7X9l48tcD7Q8SR3usU6eOmzplqjwTDxKGgEmPjZT6FShQQMiXcIh4ypQpEg75Q94rVqwgKJuwIkCrzK1AoqrVR8qjZMmSsvGHRtykSRMHsWOqUQGb66+/XiYrfTd//nz32GOPueeee86hdSNPPfWUGzVqlMRDUy5YsOBhWdFoHexqCGQiAkmpGZ933nmuTJkyQpoQ26JFi0QLZkn8yy+/yJIbMoZsunbtKqYHSPnoo492FSpUkOU1RMm9X/Lly+c6deokS+6aNWsGSJ54p5xyimiQLLnRoNGmMaVAvAgkChkjNWrUcJA/mjCyZMkS0VjRiBEIHW2yRYsW8qx/0PLzItSFiSEaAa/p06dL3TBTYHZo1KhRIOlxxx0XuNebkSNHuqZNm7ry5cvLKyYgNhAxTahgk2eiYWIxMQQMgfggkHRkDKHu2rVLSATiPP7444Uw9RgXy+y+ffuKFnrMMceIltiqVascJodw8EDCbH6x5PcK5oUXXnjBHTx4UGyj2FLRoqMRNgyxR2MCQZgcok0bTf4aB6144cKFbsSIEfrKrVu3zj3wwANyqiLwMusGu/A777zjpk2bJjZd2sbph3AyadIkd++998rGICYMtGBkxowZQSe3cHlZmCFgCESPQNKRMfbiN9980w0ePFjswTTlrrvuCpAtpFy7dm1Xv359MSFwNI4TBcOHD5eNqUhNh+CRU089VcpR8wfv0CKxAastFPKKViAtzCqqGUebLtZ455xzjhs3bpxMJth+Dxw44LDvUm8mMq9s3bpVyJQ2Yl9n889rsvHG1Xs050ceecSdddZZrlmzZvJDmwdjtGa0acwxaP7Y600MAUMgPggknc2Y86qYCQoVKiQtZMPIq2WyRH/88cflXCtL9nr16okm+9tvvwUQYccf26/3XSDwjxuW2BCTkjFX/uEDaRG0YpboGv5HspAX6oG2redtSY9m6hc000jaqT+N9xkCxGbO5htkjEkHk0n//v290eSeyYE2tmnTxnH6AtMDJ00iScWKFUU7vu6662ST8r777pN0HTp0kEmMPNR0EykvCzcEDIHoEMiXRTaHoosav1iQli7nWcofddTvc4JqXjNnzpRjV9hkq1Wr5jZs2ODQCHXXHhsyNku0UQiU0wBsUKmQJ9obm13kAWmh5bFBRxq0YgR7MBofR8PYrIIksfNib8beSr0gbWzMaM2cwEBrRlO/8cYbxXaLzZgjZWjsmA/IQ22xEKDWWetGeUCuR8b0fW6utF0nrXDp+ddx1ElxDhc3XBj5gKdfAw+XxsIMAUMgOgQSQsbRVI1TE5AqH38wgdDQQrEpq+nBHw/ygDhC5eGPzzOkyiah2kqDxQn3jjqzWRaqXuRP3e1cbjgULcwQyDwEkpaMM68rrMWGgCGQyQgknc04kzvD2m4IGAKZi4CRceb2vbXcEDAEkggBI+Mk6gyriiFgCGQuAkbGmdv31nJDwBBIIgSMjJOoM6wqhoAhkLkIGBlnbt9byw0BQyCJEDAyTqLOsKoYAoZA5iJgZJy5fW8tNwQMgSRCwMg4iTrDqmIIGAKZi4CRceb2vbXcEDAEkggBI+Mk6gyriiFgCGQuAkbGmdv31nJDwBBIIgSMjJOoM6wqhoAhkLkIGBlnbt9byw0BQyCJEDAyTqLOsKoYAoZA5iJgZPxH33/99dfuq6++Eq/R/Kf0XsFRaSjJbZg3P/7DeX7BJFyYP364uvCf9Ydy6hJr2AcffCDumN566y1/FezZEDAEcomAkfEfwH3++efiMmnq1KkBP3avvfaa+9Of/iS/888/33377bcBmMOF4XW6R48eDq/VuHjCNVMwgWjvuece17JlS/mNGjVKvIQQN1yYP69w5e3du1dcPNGOFi1aOLw/q+Q2DBLes2ePe+aZZzQruxoChkAeETAy9gConpPxf4cz0ttuu008Ly9dulQ8Uj/44IMSO1wYbpduuOEGN2DAAPHTN2zYMIdjz2Ba65w5c4So33jjDYffPxx9QvJIuDCJ8MefSOU98cQTrlixYg6/gTgyxZkrKwAkt2Fo2GBVokSJP2phF0PAEMgrAkbGfyCI49CaNWu6008/XfzTffjhh65u3bquadOm4s+ud+/ebv78+bLUDxe2bfs2IVVc3ePnjnQ//vijW79+fY6+Wrx4sTg7xRtzmTJlXNeuXR3vkHBh3owilTdv3jzXp08fV7hwYVe/fn1pz7JlyySL3Ia1bdtWCJ62mRgChkB8EMgfn2xiz2Xjxo1iFkBjxAMzS3r1OoyjUeySaKCQCGHlypWTQtAeDxw44I455hj3xRdfiNdjXMirVqs1QZuFdIYOHRrw1qxhwa54fUbUm/P3338vZKxxq1evLo5KKTtc2L69+6Q96rWZNtWuXdvt3r1bswpcede+ffvAc40aNcSDNS/ChQUSZN2EKw9TB3Wl7irUZdeuXWIGyU0Y+fTq1Uuy69evn2ZrV0PAEMgjAgnRjL/55hvH0hyts2PHjm7Dhg3i5l7bwlIdkkZTrFKlips8ebI7ePCgBO/bt8+h0XFFQ8P9vC7tNT3XUqVKCQlB2rkRPEQXKFAgkBRX9wibXbGEkQZP0aRbt26dmC5WrFjhfv75Z7EP+8sgbwQP08HC0LJJzw9zg78upNXyKBMzhj8fsM1tGPmbGAKGQPwRSIhmDKEULFjQlS9fXrRWNCw0TpX9+/e7OnXqyNKd5Xux4sUCWjNxKlSoENAoixQp4saMGSOanmrWxMHkwC+3AomjoauozRdiixQW7DQG6TA9bN68WbIsW7askCSkqwJBHnvssfJI/GBhbJzNmDFD4tC+Bg0auFDlUU8mK28+tIMychumdbWrIWAIxBeBhJAxS+WdO3e6J598UjaBIN5mzZoFWta3b183e/Zs2XSqVq2anAKAvFW8pAupoP2xJPe+17i5vTIJYCNWwawCiRUtWlQmiVBhaOTbtm0TOzFxqdeXX37pSpYsKfZhzY8rphe02549e8pr7MqUGy4MPO677z6Jw5+tW7eGLA88yI+6M/Eha9euldMhuQ2TTOyPIWAIxB2BhJgp2I3HzjtixAjXrVs30Rb1zCphENell17qBg0a5CpXrixmimA217ij4ckQOzVmBY68obG+8847rnPnzi5fvnxiww4VVqlSJTGPYIZhkuBUBHZvJiC/tGvXTiYcJiZWAxC82pDDhXnziVQeR+vefvtt0Z45S/3xxx+7Nm3aSBa5DfOWb/eGgCEQJwSyyO+Iy8KFCw9NmTLlUJbWKGVnnU44NH78eLnPWlIfuvvuuw/t2LFDnrOW1YceeeSRQ1nanTxn2UolrTxk/cmyvR664447DmXZTvWVXLO000OUo2VkC4zyYdq0aYeyNvYOZRHzoSxt/dD27dsDKcOFrVq16lCWLfxQ1tneQ61btz6UtZkYSOe9+e233w5lHZ+TMrLs54eyjsAdyjI5SJRwYd48uA9XXtYkduiCCy44lHWW+VDDhg0PjRs3LpA8t2GBDOzGEDAE4oZAPnKKE69HnQ12SzRHNvKwabJkxjSBLRhh6T5r1iwxC2BLbtSokTvttNMk7sqVK2XZzTleBHvp6NGj3c0335xto2rBggWOI2ho314ThySK4Q9mBsrANu2XcGHEpe6cWY4k4EFebLz5JVyYP2648tgwZBMymCknt2H+8u3ZEDAEco9AQshYqwsBQTbBSIg4kCB22mAEonmEujLHkLduiIWKZ+8NAUPAEEgGBBJKxskAgNXBEDAEDIFkQCAhG3jJ0HCrgyFgCBgCyYSAkXEy9YbVxRAwBDIWASPjjO16a7ghYAgkEwJGxsnUG1YXQ8AQyFgEjIwztuut4YaAIZBMCBgZJ1NvWF0MAUMgYxEwMs7YrreGGwKGQDIhYGScTL1hdTEEDIGMRcDIOGO73hpuCBgCyYSAkXEy9YbVxRAwBDIWASPjjO16a7ghYAgkEwJGxsnUG1YXQ8AQyFgEjIwztuut4YaAIZBMCBgZJ1NvWF0MAUMgYxEwMs7YrreGGwKGQDIhYGScTL1hdTEEDIGMRcDIOMqux2Hq999/75YvXx42Bd5LjqR88MEH7ocffnDq0PVIlm1lGQKGQPwQMDKOEstnnnnGZTlJFQ/O4ZLg1Xru3LnhosQ1DBLes2ePo34mhoAhkLoI5E9U1dEgs7wtuypVqrh8+fIlqhpRl1uiRAmHX71ixYqFTZPlyToqJ6RhM4khkDqdeOKJjvqZGAKGQOoicHSWm/s7ElH9H3/80Y0dO9a1b98+Jcj4v//9r6tZs6YQbfny5d0nn3zinn32Wffuu++KV+pKlSoJjJMnT3aFChVypUuXdv/5z3+kjc8995xo1Vu2bBGTQuXKld2rr77qdu7c6WbOnOleeOEFiVu9enXxgE1Gq1atck899ZR7++23xTM1+WOOuOeee9xvv/3mHn74YdepUye5b9CggZRdp04dudofQ8AQSD0EEkLGc+bMcV988YUsr/fv3+/WrVsnruohsI8++sjt27fPlSlTJoAmcTdu3OggpK+//lruub7//vuSB++POup/Fpc1a9YISW7YsEGI8YQTTgjkxc0vv/ziHnvsMQfBQozRCERXtGhRBxFDopdccokbPHiwq1q1qrvxxhtlUkE7RTOuUaOGq1atmpDp/PnzHaYL5M4773T16tVzjRo1clOmTHHjxo1zvXv3dk2aNHH33nuvvCf/zz77zF1//fVuwIAB7qSTTnK33HKL69mzpxD2yJEjpd69evVykDf1ou1GxNH0osUxBJIXgYSYKSCjAwcOCAm3aNFCNOPChQsLSpgBsINCWkcffbSYBtA+0QIRiHrevHmue/furm27tu7dhe9K/L59+0r4hx9+KETfrVs39/PPP7tp06a5Cy+80JUtW1bC+ZM/f34hzFKlSgXexXKzdu1aIXkIsHjx4m7ChAnu+OOPz5HFggULhKhbt24tYcuWLcsW5+KLLxaS5eVpp53m2Ixr1qyZe/75591FF10kbSRs9erVbunSpU7zgfCPOeYYgkwMAUMgTRD4nzp5BBsEMarmiyZYoUKFgJ0VrRJig/CQrdu2ikZYu3btQA3RCCGtqlWquj59+ghZYRLAfvree+85tEa0ZdI0b97cffrpp4G03EDypKtVq1a299E+YFpBo+V35ZVXiqZesWLFbMnR+NHQGzZsGHjv1d55WaBAgUAYk9FPP/0kz9R3zJgxrlWrVvJ76aWXnJfIjYgDsNmNIZA2CCREMw6HHpt5aIArVqxw9evXd6s+WSWEBIEGEzRTSA4bNHEwQUycODEQlY1CTAbxFPIcMmSIu/rqq+WoG2b3X3/91al2TlmYRtSkcfLJJ8dUPOaQ4cOHC9l7E3777bfeR7s3BAyBNEIgYWQc7gQFG1Is8bELr1+/PrBcD4Y75As5ok1DyuQ7dOhQV7BgwWDR4/KODTdMCk8//bRMHHXr1pVJwJs59cC0MnXqVHfdddeJyYRNOUw0kaRr164ObRjNmBXEokWLhNyxqZsYAoZAeiKQEDMFULIsh7B2796dA1lsuhDRjBkzHMTst8fyjy/+/e9/Szr+EUa5cuWEfI877jiHFoqNmc05BHPH1q1b5V7/EIY5Y9u2bfoqpisbaxwnO+WUUxzEiXnkzDPPzJHHwIEDxdZ76qmnutGjR8vxs3CTkGZw2WWXiYmFvLt06eImTZoU9Uaj5mFXQ8AQSC0E8mURyaFEVXnJkiVyIgJixubqXeZjP2WjClNAyZIlA1XEfLFy5UrRgiFkyK1///6BDTrSsQHIkp4wzBgQJeSp8q9//UvyhvAhu9yK2qm9tl9vXpTDRPLPf/5TrpT1+OOPOzTpaIT8Ocbmn4yiSWtxDAFDILUQSCgZAxW2VgjHb1bgeBdH2s4///xsiELGmzZtcueee65TsssW4Y8H8uSHthxMMG9AotFoqsHSR/Pu73//u9u1a5dr27atW7x4sZhdpk+fHk1Si2MIGAIZhkDCbMaKM4To1SzRdrETcz4Xc0A4CacxYurgF0qOPfbYUEFxez9s2DBpx5dffilH2Nq0aRO3vC0jQ8AQSC8EEq4Z++HEhswxLo6E8Q8e/IKdl7PGjRs39gfZsyFgCBgCKYtA0pFxyiJpFTcEDAFDIA8IJOw0RR7qbEkNAUPAEEg7BIyM065LrUGGgCGQiggYGadir1mdDQFDIO0QMDJOuy61BhkChkAqImBknIq9ZnU2BAyBtEPAyDjtutQaZAgYAqmIgJFxKvaa1dkQMATSDgEj47TrUmuQIWAIpCICRsap2GtWZ0PAEEg7BIyM065LrUGGgCGQiggYGadir1mdDQFDIO0QMDJOuy61BhkChkAqImBknIq9ZnU2BAyBtEPAyDjtutQaZAgYAqmIgJFxKvaa1dkQMATSDgEj47TrUmuQIWAIpCICRsap2GtWZ0PAEEg7BIyM065LrUGGgCGQiggYGadir1mdDQFDIO0QMDJOuy61BhkChkAqImBknIq9ZnU2BAyBtEPAyDjtutQaZAgYAqmIgJFxKvaa1dkQMATSDgEj47TrUmuQIWAIpCICRsap2GtWZ0PAEEg7BIyM065LrUGGgCGQiggYGadir1mdDQFDIO0QMDJOuy61BhkChkAqImBknIq9ZnU2BAyBtEPAyDjtutQaZAgYAqmIgJFxKvaa1dkQMATSDgEj47TrUmuQIWAIpCICRsap2GtWZ0PAEEg7BIyM065LrUGGgCGQiggYGadir1mdDQFDIO0QMDJOuy61BhkChkAqImBknIq9ZnU2BAyBtEPAyDjtutQaZAgYAqmIgJFxKvaa1dkQMATSDgEj47TrUmuQIWAIpCICRsap2GtWZ0PAEEg7BIyM065LrUGGgCGQiggYGadir1mdDQFDIO0QMDJOuy61BhkChkAqImBknIq9ZnU2BAyBtEPAyDjtutQaZAgYAqmIgJFxKvaa1dkQMATSDgEj47TrUmuQIWAIpCICRsap2GtWZ0PAEEg7BIyM065LrUGGgCGQiggYGadir1mdDQFDIO0QMDJOuy61BhkChkAqImBknIq9ZnU2BAyBtEPAyDjtutQaZAgYAqmIgJFxKvaa1dkQMATSDgEj47TrUmuQIWAIpCICRsap2GtWZ0PAEEg7BIyM065LrUGGgCGQigj8P7pO0z/d1FhKAAAAAElFTkSuQmCC;" parent="1" vertex="1">
          <mxGeometry x="-147.5" y="300" width="355" height="342" as="geometry" />
        </mxCell>
        <mxCell id="D0VUoQXIqZahB_qH9DUe-6" value="encrypted" style="swimlane;fontStyle=0;childLayout=stackLayout;horizontal=1;startSize=26;horizontalStack=0;resizeParent=1;resizeParentMax=0;resizeLast=0;collapsible=1;marginBottom=0;align=center;fontSize=14;fillColor=#dae8fc;strokeColor=#6c8ebf;" parent="1" vertex="1">
          <mxGeometry x="350" y="-52" width="160" height="52" as="geometry" />
        </mxCell>
        <mxCell id="c0XTT7H6YwgaKxXrYVT6-45" value="accounts" style="swimlane;fontStyle=0;childLayout=stackLayout;horizontal=1;startSize=26;horizontalStack=0;resizeParent=1;resizeParentMax=0;resizeLast=0;collapsible=1;marginBottom=0;align=center;fontSize=14;fillColor=#dae8fc;strokeColor=#6c8ebf;" parent="1" vertex="1">
          <mxGeometry x="-425" y="-56" width="160" height="56" as="geometry" />
        </mxCell>
        <mxCell id="D0VUoQXIqZahB_qH9DUe-10" style="edgeStyle=orthogonalEdgeStyle;rounded=0;orthogonalLoop=1;jettySize=auto;html=1;" parent="1" source="D0VUoQXIqZahB_qH9DUe-9" target="D0VUoQXIqZahB_qH9DUe-11" edge="1">
          <mxGeometry relative="1" as="geometry">
            <mxPoint x="-670" y="100" as="targetPoint" />
          </mxGeometry>
        </mxCell>
        <mxCell id="D0VUoQXIqZahB_qH9DUe-9" value="industries" style="swimlane;fontStyle=0;childLayout=stackLayout;horizontal=1;startSize=26;horizontalStack=0;resizeParent=1;resizeParentMax=0;resizeLast=0;collapsible=1;marginBottom=0;align=center;fontSize=14;fillColor=#dae8fc;strokeColor=#6c8ebf;" parent="1" vertex="1">
          <mxGeometry x="-750" y="-56" width="175" height="56" as="geometry" />
        </mxCell>
        <mxCell id="D0VUoQXIqZahB_qH9DUe-31" style="edgeStyle=orthogonalEdgeStyle;rounded=0;orthogonalLoop=1;jettySize=auto;html=1;exitX=0.5;exitY=1;exitDx=0;exitDy=0;" parent="1" source="D0VUoQXIqZahB_qH9DUe-11" edge="1">
          <mxGeometry relative="1" as="geometry">
            <mxPoint x="-670" y="120" as="targetPoint" />
          </mxGeometry>
        </mxCell>
        <mxCell id="D0VUoQXIqZahB_qH9DUe-11" value="landscaping, security" style="rounded=1;whiteSpace=wrap;html=1;" parent="1" vertex="1">
          <mxGeometry x="-730" y="20" width="120" height="60" as="geometry" />
        </mxCell>
        <mxCell id="D0VUoQXIqZahB_qH9DUe-17" value="Security&lt;br&gt;&lt;br&gt;central station&lt;br&gt;alarmnet&lt;br&gt;events Security" style="rounded=0;whiteSpace=wrap;html=1;" parent="1" vertex="1">
          <mxGeometry x="-545" y="240" width="150" height="177" as="geometry" />
        </mxCell>
        <mxCell id="D0VUoQXIqZahB_qH9DUe-18" value="&lt;br&gt;Account property&lt;br&gt;contact" style="rounded=0;whiteSpace=wrap;html=1;" parent="1" vertex="1">
          <mxGeometry x="-550" y="150" width="160" height="80" as="geometry" />
        </mxCell>
        <mxCell id="D0VUoQXIqZahB_qH9DUe-19" value="Landscaping&lt;br&gt;&lt;br&gt;sprinklers&lt;br&gt;lawncare&lt;br&gt;events Landscaping" style="rounded=0;whiteSpace=wrap;html=1;" parent="1" vertex="1">
          <mxGeometry x="-545" y="431.5" width="150" height="177" as="geometry" />
        </mxCell>
        <mxCell id="D0VUoQXIqZahB_qH9DUe-25" style="edgeStyle=orthogonalEdgeStyle;rounded=0;orthogonalLoop=1;jettySize=auto;html=1;exitX=0.5;exitY=1;exitDx=0;exitDy=0;entryX=0.5;entryY=0;entryDx=0;entryDy=0;" parent="1" source="D0VUoQXIqZahB_qH9DUe-21" target="D0VUoQXIqZahB_qH9DUe-22" edge="1">
          <mxGeometry relative="1" as="geometry" />
        </mxCell>
        <mxCell id="D0VUoQXIqZahB_qH9DUe-21" value="events" style="swimlane;fontStyle=0;childLayout=stackLayout;horizontal=1;startSize=26;horizontalStack=0;resizeParent=1;resizeParentMax=0;resizeLast=0;collapsible=1;marginBottom=0;align=center;fontSize=14;fillColor=#dae8fc;strokeColor=#6c8ebf;" parent="1" vertex="1">
          <mxGeometry x="-940" y="-56" width="160" height="56" as="geometry" />
        </mxCell>
        <mxCell id="D0VUoQXIqZahB_qH9DUe-27" value="industry 1 (security)" style="swimlane;fontStyle=0;childLayout=stackLayout;horizontal=1;startSize=26;horizontalStack=0;resizeParent=1;resizeParentMax=0;resizeLast=0;collapsible=1;marginBottom=0;align=center;fontSize=14;fillColor=#f8cecc;strokeColor=#b85450;" parent="1" vertex="1">
          <mxGeometry x="-750" y="126" width="160" height="104" as="geometry" />
        </mxCell>
        <mxCell id="D0VUoQXIqZahB_qH9DUe-28" value="belongsTo: [accountId account,&#xa;]" style="text;strokeColor=none;fillColor=none;spacingLeft=4;spacingRight=4;overflow=hidden;rotatable=0;points=[[0,0.5],[1,0.5]];portConstraint=eastwest;fontSize=12;" parent="D0VUoQXIqZahB_qH9DUe-27" vertex="1">
          <mxGeometry y="26" width="160" height="26" as="geometry" />
        </mxCell>
        <mxCell id="D0VUoQXIqZahB_qH9DUe-29" value="id:string" style="text;strokeColor=none;fillColor=none;spacingLeft=4;spacingRight=4;overflow=hidden;rotatable=0;points=[[0,0.5],[1,0.5]];portConstraint=eastwest;fontSize=12;" parent="D0VUoQXIqZahB_qH9DUe-27" vertex="1">
          <mxGeometry y="52" width="160" height="26" as="geometry" />
        </mxCell>
        <mxCell id="D0VUoQXIqZahB_qH9DUe-30" value="type:security" style="text;strokeColor=none;fillColor=none;spacingLeft=4;spacingRight=4;overflow=hidden;rotatable=0;points=[[0,0.5],[1,0.5]];portConstraint=eastwest;fontSize=12;" parent="D0VUoQXIqZahB_qH9DUe-27" vertex="1">
          <mxGeometry y="78" width="160" height="26" as="geometry" />
        </mxCell>
        <mxCell id="D0VUoQXIqZahB_qH9DUe-33" value="scheduling details: data time etc." style="text;html=1;align=center;verticalAlign=middle;resizable=0;points=[];autosize=1;" parent="1" vertex="1">
          <mxGeometry x="-995" y="-30" width="190" height="20" as="geometry" />
        </mxCell>
        <mxCell id="9UFXe9SifeHt2uH1v4Fv-3" value="&lt;h1&gt;Multiple techs/events&lt;/h1&gt;&lt;p&gt;Support multiple techs assigned&amp;nbsp;&lt;/p&gt;&lt;p&gt;Support multiple events at same time for same account&lt;/p&gt;" style="text;html=1;strokeColor=none;fillColor=none;spacing=5;spacingTop=-20;whiteSpace=wrap;overflow=hidden;rounded=0;" vertex="1" parent="1">
          <mxGeometry x="-950" y="281.5" width="190" height="150" as="geometry" />
        </mxCell>
        <mxCell id="D0VUoQXIqZahB_qH9DUe-22" value="event 1" style="swimlane;fontStyle=0;childLayout=stackLayout;horizontal=1;startSize=26;horizontalStack=0;resizeParent=1;resizeParentMax=0;resizeLast=0;collapsible=1;marginBottom=0;align=center;fontSize=14;fillColor=#f8cecc;strokeColor=#b85450;" parent="1" vertex="1">
          <mxGeometry x="-940" y="123" width="160" height="104" as="geometry" />
        </mxCell>
        <mxCell id="D0VUoQXIqZahB_qH9DUe-23" value="belongsTo: [landscapingId,&#xa;]" style="text;strokeColor=none;fillColor=none;spacingLeft=4;spacingRight=4;overflow=hidden;rotatable=0;points=[[0,0.5],[1,0.5]];portConstraint=eastwest;fontSize=12;" parent="D0VUoQXIqZahB_qH9DUe-22" vertex="1">
          <mxGeometry y="26" width="160" height="26" as="geometry" />
        </mxCell>
        <mxCell id="D0VUoQXIqZahB_qH9DUe-24" value="scheduledDate: timestamp" style="text;strokeColor=none;fillColor=none;spacingLeft=4;spacingRight=4;overflow=hidden;rotatable=0;points=[[0,0.5],[1,0.5]];portConstraint=eastwest;fontSize=12;" parent="D0VUoQXIqZahB_qH9DUe-22" vertex="1">
          <mxGeometry y="52" width="160" height="26" as="geometry" />
        </mxCell>
        <mxCell id="D0VUoQXIqZahB_qH9DUe-26" value="id:string" style="text;strokeColor=none;fillColor=none;spacingLeft=4;spacingRight=4;overflow=hidden;rotatable=0;points=[[0,0.5],[1,0.5]];portConstraint=eastwest;fontSize=12;" parent="D0VUoQXIqZahB_qH9DUe-22" vertex="1">
          <mxGeometry y="78" width="160" height="26" as="geometry" />
        </mxCell>
      </root>
    </mxGraphModel>
  </diagram>
</mxfile>
